<?xml version="1.0" encoding="utf-8"?>
<!-- Generator: Adobe Illustrator 27.5.0, SVG Export Plug-In . SVG Version: 6.00 Build 0)  -->
<svg version="1.1" xmlns="http://www.w3.org/2000/svg" xmlns:xlink="http://www.w3.org/1999/xlink" x="0px" y="0px"
	 viewBox="0 0 750 500" style="enable-background:new 0 0 750 500;" xml:space="preserve">
<g id="BACKGROUND">
	<g>
		<rect style="fill:#F8E9D3;" width="750" height="500"/>
	</g>
</g>
<g id="OBJECTS">
	<g>
		<g>
			<g>
				<g>
					<path style="fill:#EAD5B9;" d="M405.616,188.541c-24.294-3.444-47.319-12.94-67.188-27.339
						c-29.676-21.506-91.78-58.101-151.023-39.873c-81.714,25.143-82.079,97.878-60.795,137.388
						c21.285,39.51,172.221,155.211,367.898,136.801c175.103-16.474,209.225-205.046,115.837-239.169
						C529.347,126.755,501.713,202.163,405.616,188.541z"/>
				</g>
			</g>
		</g>
		<g>
			<g>
				<g>
					<g>
						<path style="fill:#EAD5B9;" d="M203.038,333.35c0,0-12.223-5.59-16.994,4.124c-4.771,9.714,12.679,19.667,22.174,16.806
							C217.714,351.419,216.048,337.115,203.038,333.35z"/>
					</g>
				</g>
			</g>
		</g>
		<g>
			<g>
				<g>
					<g>
						<path style="fill:#EAD5B9;" d="M395.981,158.271c0,0-13.301-4.169-16.952,6.444c-3.651,10.613,15.592,18.595,24.992,14.422
							C413.421,174.963,409.855,160.46,395.981,158.271z"/>
					</g>
				</g>
			</g>
		</g>
	</g>
	<g>
		<g>
			<ellipse style="fill:#DBBF9F;" cx="377.839" cy="439.04" rx="180.439" ry="17.839"/>
		</g>
		<g>
			<g>
				<g>
					<g>
						<path style="fill:#F4AD4B;" d="M478.989,412.542c-2.13,2.127-4.442,4.16-6.95,6.081c-12.542,9.63-29.878,16.532-52.908,18.837
							c-117.774,11.786-156.687-43.461-166.201-128.464c-4.236-37.882,5.682-62.876,17.983-78.951
							c1.287-1.678,2.598-3.261,3.922-4.749c0.748-0.84,1.514-1.662,2.299-2.463c15.885-16.223,38.81-23.858,61.341-20.15
							c17.708,2.915,33.797,12.373,46.851,31.278c20.877,30.229,1.126,56.219,60.794,57.958
							C491.792,293.251,520.732,370.899,478.989,412.542z"/>
					</g>
				</g>
				<g>
					<g>
						<path style="fill:#D57635;" d="M298.684,228.991c0,0-13.927,29.797,2.153,84.497c16.08,54.7,37.379,50.389,51.138,50.389
							c24.037,0,72.717-22.643,82.23-40.48c9.513-17.837-8.438-18.903-42.053-21.541
							C358.537,299.218,333.454,217.188,298.684,228.991z"/>
					</g>
				</g>
				<g>
					<g>
						<path style="fill:#D57635;" d="M328.886,386.832c-0.265,0-0.529-0.104-0.726-0.312c-0.381-0.401-0.365-1.035,0.036-1.416
							c12.021-11.43,23.503-18.162,31.018-21.798c8.175-3.954,13.44-5.181,13.66-5.231c0.54-0.123,1.077,0.214,1.199,0.753
							c0.123,0.539-0.214,1.076-0.753,1.199c-0.242,0.056-21.167,5.061-43.745,26.528
							C329.382,386.741,329.133,386.832,328.886,386.832z"/>
					</g>
				</g>
				<g>
					<g>
						<path style="fill:#D57635;" d="M332.857,373.443c-0.322,0-0.639-0.155-0.832-0.442c-0.309-0.459-0.187-1.081,0.272-1.39
							c0.468-0.315,11.657-7.735,28.978-9.626c0.548-0.059,1.044,0.337,1.104,0.887c0.06,0.55-0.337,1.044-0.887,1.105
							c-16.834,1.838-27.966,9.222-28.077,9.296C333.243,373.388,333.049,373.443,332.857,373.443z"/>
					</g>
				</g>
				<g>
					<g>
						<path style="fill:#D57635;" d="M296.54,290.685c-0.498,0-0.929-0.37-0.993-0.877c-1.454-11.587-6.439-20.445-10.364-25.836
							c-4.269-5.861-8.247-9.013-8.287-9.044c-0.435-0.341-0.511-0.971-0.17-1.406c0.341-0.436,0.97-0.512,1.406-0.171
							c0.169,0.133,4.199,3.316,8.627,9.382c4.082,5.591,9.265,14.783,10.776,26.826c0.069,0.549-0.32,1.05-0.869,1.119
							C296.624,290.682,296.582,290.685,296.54,290.685z"/>
					</g>
				</g>
				<g>
					<g>
						<g>
							<path style="fill:#D57635;" d="M478.989,412.542c-2.13,2.127-4.442,4.16-6.95,6.081
								c-14.495,8.705-32.177,14.429-51.656,16.667c-6.044,0.695-12.14,1.039-18.242,1.039c-16.823,0-33.678-2.621-49.57-7.769
								c-41.339-13.39-71.166-42.036-83.988-80.664c-7.03-21.178-10.481-41.772-10.259-61.214
								c0.174-15.573,2.695-30.443,7.489-44.198c1.599-4.588,3.338-8.734,5.1-12.439c1.287-1.678,2.598-3.261,3.922-4.749
								c0.748-0.84,1.514-1.662,2.299-2.463c-3.139,5.38-6.498,12.214-9.366,20.462c-7.389,21.273-12.899,56.574,2.822,103.935
								c12.603,37.972,41.949,66.14,82.632,79.319c43.22,13.998,93.211,8.324,124.394-14.122
								C478.048,412.116,478.629,412.177,478.989,412.542z"/>
						</g>
					</g>
				</g>
			</g>
			<g>
				<g>
					<g>
						<g>
							<path style="fill:#E05042;" d="M306.281,194.575c0,0-16.261-16.618,7.424-28.33c23.685-11.711,51.587,6.18,56.163,19.227
								C374.445,198.52,306.281,194.575,306.281,194.575z"/>
						</g>
					</g>
					<g>
						<g>
							<path style="fill:#B11722;" d="M334.571,183.176c-0.144,0-0.289-0.049-0.407-0.15c-6.464-5.531-17.292-5.023-17.4-5.019
								c-0.012,0.001-0.023,0.001-0.034,0.001c-0.331,0-0.607-0.259-0.625-0.593c-0.018-0.345,0.247-0.64,0.592-0.658
								c0.465-0.026,11.44-0.535,18.281,5.318c0.263,0.225,0.293,0.62,0.069,0.883C334.923,183.102,334.747,183.176,334.571,183.176
								z"/>
						</g>
					</g>
					<g>
						<g>
							<path style="fill:#B11722;" d="M318.696,183.962c-0.224,0-0.441-0.12-0.553-0.332c-0.162-0.305-0.047-0.684,0.259-0.847
								c0.316-0.168,7.806-4.111,13.122-2.873c0.337,0.078,0.546,0.415,0.468,0.752c-0.078,0.337-0.413,0.547-0.752,0.468
								c-4.861-1.131-12.176,2.719-12.249,2.759C318.896,183.939,318.795,183.962,318.696,183.962z"/>
						</g>
					</g>
				</g>
				<g>
					<g>
						<g>
							<g>
								<g>
									<path style="fill:#F69D84;" d="M482.551,402.559l8.34,15.371c0,0,10.254,2.413,22.447,3.35
										c18.532,1.424,24.02-1.499,25.332,2.64c1.023,3.226-13.074,10.521-19.59,11.672c-6.516,1.151-20.763,6.995-30.006,8.02
										c-9.243,1.025-13.322-10.646-15.416-14.801c-2.094-4.155-8.68-18.228-8.68-18.228L482.551,402.559z"/>
								</g>
							</g>
						</g>
					</g>
					<g>
						<g>
							<g>
								<g>
									<path style="fill:#E05042;" d="M531.401,427.973c0.039,1.161-0.171,2.262-0.783,3.153
										c-0.097,0.141-0.201,0.274-0.319,0.403c-3.282,3.624-16.417,5.376-16.417,5.376c1.046-1.006,1.549-2.425,1.704-4.016
										c0.411-4.178-1.579-9.537-2.444-11.626c-0.235-0.566-0.388-0.892-0.388-0.892c2.273-0.531,4.432-0.828,6.384-0.973
										c1.919-0.145,3.639-0.144,5.064-0.082c2.677,0.115,4.318,0.445,4.318,0.445s0.461,0.74,1.013,1.877
										C530.332,423.277,531.325,425.74,531.401,427.973z"/>
								</g>
							</g>
						</g>
					</g>
					<g>
						<g>
							<g>
								<g>
									<path style="fill:#B11722;" d="M525.818,425.434l-4.548,0.471c0,0-0.598-2.224-1.282-4.264
										c-0.279-0.834-0.576-1.636-0.85-2.242c1.919-0.145,3.639-0.144,5.064-0.082c0.269,0.602,0.591,1.45,0.875,2.393
										C525.438,422.9,525.746,424.243,525.818,425.434z"/>
								</g>
							</g>
						</g>
					</g>
					<g>
						<g>
							<g>
								<path style="fill:#E05042;" d="M537.069,426.187c0,0-42.445,13.437-48.146,14.434c-5.701,0.997-8.807-0.121-8.807-0.121
									s0.178,2.335,0.657,4.523c0.564,2.576,3.24,4.096,5.759,3.317c11.354-3.515,48.883-15.231,51.441-17.308
									C540.99,428.582,540.334,425.975,537.069,426.187z"/>
							</g>
						</g>
					</g>
				</g>
				<g>
					<g>
						<g>
							<g>
								<g>
									<g>
										<path style="fill:#F69D84;" d="M443.447,399.028l-0.548,13.809c0,0,7.578,7.317,17.577,14.357
											c15.198,10.7,21.409,10.995,20.42,15.223c-0.771,3.295-16.616,2.355-22.804,0.013c-6.188-2.342-21.42-4.606-29.887-8.452
											c-8.467-3.846-6.004-15.961-5.679-20.603c0.326-4.642,1.016-15.096,1.016-15.096L443.447,399.028z"/>
									</g>
								</g>
							</g>
						</g>
						<g>
							<g>
								<g>
									<g>
										<path style="fill:#E05042;" d="M472.577,442.184c-0.56,1.018-1.304,1.857-2.285,2.309
											c-0.155,0.071-0.314,0.133-0.481,0.183c-4.673,1.436-16.857-3.775-16.857-3.775c1.414-0.329,2.572-1.292,3.518-2.58
											c2.49-3.38,3.52-9.003,3.845-11.241c0.087-0.607,0.123-0.965,0.123-0.965c2.225,0.706,4.232,1.555,5.983,2.429
											c1.723,0.857,3.201,1.737,4.393,2.519c2.242,1.468,3.483,2.591,3.483,2.591s0.017,0.872-0.089,2.131
											C474.06,437.602,473.654,440.226,472.577,442.184z"/>
									</g>
								</g>
							</g>
						</g>
						<g>
							<g>
								<g>
									<g>
										<path style="fill:#B11722;" d="M469.077,437.147l-4.149-1.921c0,0,0.624-2.217,1.078-4.32
											c0.186-0.859,0.342-1.701,0.416-2.361c1.723,0.857,3.201,1.737,4.393,2.519c-0.076,0.655-0.233,1.548-0.472,2.503
											C470.047,434.775,469.625,436.087,469.077,437.147z"/>
									</g>
								</g>
							</g>
						</g>
						<g>
							<g>
								<g>
									<path style="fill:#E05042;" d="M478.361,443.548c0,0-43.347-10.157-48.756-12.215c-5.409-2.059-7.507-4.608-7.507-4.608
										s-1.041,2.098-1.748,4.223c-0.833,2.502,0.69,5.177,3.253,5.795c11.554,2.785,49.797,11.907,53.057,11.431
										C480.506,447.611,481.276,445.035,478.361,443.548z"/>
								</g>
							</g>
						</g>
					</g>
					<g>
						<g>
							<g>
								<path style="fill:#1E453E;" d="M458.191,289.322c-11-8.463-50.513-4.981-81.462-0.604c-0.88,14.024,3.44,2.377,0.827,16.173
									c38.642,1.983,49.496,5.03,49.496,5.03s-5.778,31.453-5.501,44.603c0.277,13.15-4.376,51.201-4.376,51.201l27.863,5.251
									C445.037,410.977,473.941,301.439,458.191,289.322z"/>
							</g>
						</g>
					</g>
					<g>
						<g>
							<g>
								<path style="fill:#396C61;" d="M446.453,404.851c-0.12,0.04-0.252,0.049-0.385,0.022l-27.515-5.621
									c-0.406-0.083-0.668-0.479-0.585-0.885c0.083-0.406,0.479-0.668,0.886-0.585l27.515,5.622
									c0.406,0.083,0.668,0.479,0.585,0.886C446.898,404.562,446.7,404.77,446.453,404.851z"/>
							</g>
						</g>
					</g>
					<g>
						<g>
							<g>
								<path style="fill:#396C61;" d="M423.856,399.504c-0.123,0.04-0.257,0.05-0.393,0.021c-0.405-0.087-0.663-0.487-0.576-0.892
									c0.03-0.138,2.973-14.043,3.14-36.507c0.168-22.63,7.105-56.336,7.175-56.674c0.084-0.406,0.481-0.666,0.887-0.583
									c0.406,0.084,0.667,0.481,0.582,0.887c-0.07,0.336-6.977,33.9-7.144,56.381c-0.168,22.633-3.144,36.673-3.174,36.813
									C424.297,399.219,424.101,399.423,423.856,399.504z"/>
							</g>
						</g>
					</g>
				</g>
				<g>
					<g>
						<g>
							<g>
								<g>
									<g>
										<g>
											<g>
												<g>
													<g>
														<g>
															<g>
																<g>
																	<g>
																		<g>
																			<g>
																				<path style="fill:#F69D84;" d="M443.421,207.545c-1.017-1.37-0.285-4.239-0.537-6.476
																					c-0.332-2.95,0.08-7.478,0.983-9.971c1.356-3.743,5.953-14.545,9.007-15.81
																					c3.055-1.265-0.188,8.36-0.815,10.347c-0.626,1.987-0.315,3.565-0.315,3.565s9.15-21.504,11.686-22.237
																					c2.535-0.732-1.446,12.027-2.451,15.174c0,0,7.795-15.821,9.55-15.778c3.522,0.086-4.625,17.903-4.625,17.903
																					s7.235-12.975,9.333-11.725c2.222,1.324-5.564,15.203-5.564,15.203s5.952-7.77,8.254-7.517
																					c2.302,0.253-8.938,17.531-10.985,19.979c-2.048,2.448-7.023,9.501-10.2,12.204
																					C454.582,214.242,446.642,211.881,443.421,207.545z"/>
																			</g>
																		</g>
																	</g>
																</g>
															</g>
														</g>
													</g>
												</g>
											</g>
										</g>
									</g>
								</g>
							</g>
						</g>
						<g>
							<g>
								<g>
									<g>
										<g>
											<g>
												<g>
													<g>
														<g>
															<path style="fill:#FF7C66;" d="M468.538,193.357c0.24-0.22,0.285-0.589,0.092-0.861
																c-4.512-6.387-12.211-7.189-12.536-7.22c-0.36-0.035-0.68,0.229-0.714,0.59c-0.034,0.36,0.23,0.679,0.59,0.714l0,0
																c0.074,0.007,7.432,0.787,11.59,6.672c0.209,0.295,0.618,0.366,0.913,0.157
																C468.496,193.393,468.517,193.375,468.538,193.357z"/>
														</g>
													</g>
												</g>
											</g>
										</g>
									</g>
								</g>
							</g>
						</g>
						<g>
							<g>
								<g>
									<g>
										<g>
											<g>
												<g>
													<g>
														<g>
															<path style="fill:#FF7C66;" d="M456.226,204.378c0.191-0.175,0.268-0.455,0.172-0.713
																c-2.731-7.333,1.659-11.62,1.704-11.663c0.262-0.249,0.273-0.664,0.024-0.926c-0.246-0.259-0.654-0.273-0.917-0.033
																c-0.003,0.003-0.006,0.006-0.01,0.009c-0.208,0.198-5.059,4.934-2.029,13.07c0.126,0.339,0.504,0.512,0.843,0.385
																C456.093,204.477,456.165,204.432,456.226,204.378z"/>
														</g>
													</g>
												</g>
											</g>
										</g>
									</g>
								</g>
							</g>
						</g>
					</g>
					<g>
						<g>
							<g>
								<path style="fill:#E05042;" d="M382.213,192.492l-0.014-0.051l0.002-0.001c0,0,0.001-0.004,0.006,0.006l0.023,0.047
									l0.06,0.137l0.141,0.325l0.314,0.725c0.22,0.501,0.456,1.019,0.7,1.54c0.488,1.046,1,2.11,1.544,3.166
									c1.095,2.111,2.241,4.227,3.493,6.278c0.627,1.025,1.257,2.049,1.909,3.057c0.653,1.007,1.325,2.001,2.013,2.981
									c0.685,0.982,1.401,1.94,2.118,2.893c0.716,0.954,1.452,1.89,2.205,2.807c6.003,7.366,12.997,13.656,20.829,18.476
									c0.488,0.304,0.98,0.601,1.478,0.887c0.493,0.296,0.997,0.572,1.498,0.852l0.376,0.211
									c-0.159-0.092-0.333-0.165-0.521-0.254c-0.369-0.156-0.786-0.314-1.212-0.42c-0.43-0.112-0.867-0.194-1.292-0.23
									c-0.417-0.045-0.819-0.047-1.172-0.028c-0.702,0.034-1.226,0.171-1.528,0.263c-0.31,0.1-0.444,0.177-0.448,0.188
									c-0.011,0.033,0.393-0.175,0.904-0.569c0.517-0.392,1.157-0.944,1.834-1.593c0.677-0.652,1.389-1.399,2.108-2.209
									c1.452-1.614,2.916-3.471,4.374-5.415c2.907-3.914,5.744-8.221,8.493-12.64c1.382-2.209,2.74-4.457,4.071-6.724
									c0.673-1.129,1.337-2.265,1.988-3.402l1.904-3.292l23.187,10.544l-0.431,1.123l-0.413,1.042l-0.83,2.051
									c-0.568,1.354-1.146,2.697-1.735,4.036c-1.193,2.67-2.441,5.318-3.753,7.956c-2.646,5.268-5.53,10.478-8.949,15.675
									c-1.71,2.605-3.569,5.196-5.694,7.819c-1.071,1.307-2.216,2.622-3.482,3.948c-1.267,1.327-2.663,2.663-4.309,4.007
									c-1.651,1.339-3.544,2.711-6.033,3.993c-1.241,0.637-2.662,1.242-4.299,1.743c-1.626,0.498-3.526,0.883-5.612,0.987
									c-1.046,0.051-2.141,0.025-3.248-0.084c-1.113-0.118-2.235-0.316-3.334-0.611c-1.093-0.296-2.171-0.67-3.168-1.119
									c-0.509-0.219-0.984-0.465-1.455-0.709l-0.534-0.292c-0.712-0.39-1.425-0.778-2.126-1.188
									c-0.706-0.401-1.404-0.815-2.096-1.237c-1.39-0.837-2.752-1.718-4.1-2.62c-1.335-0.918-2.66-1.851-3.95-2.827
									c-1.297-0.967-2.562-1.972-3.807-2.999c-1.235-1.037-2.457-2.089-3.641-3.177c-4.757-4.335-9.053-9.1-12.888-14.15
									c-1.917-2.527-3.718-5.127-5.392-7.799c-1.673-2.671-3.262-5.387-4.697-8.186c-0.72-1.398-1.413-2.81-2.079-4.237
									c-0.668-1.426-1.304-2.871-1.899-4.342c-0.599-1.47-1.176-2.956-1.714-4.486c-0.267-0.768-0.527-1.544-0.783-2.346
									c-0.128-0.404-0.255-0.807-0.381-1.235l-0.431-1.512L382.213,192.492z"/>
							</g>
						</g>
					</g>
					<g>
						<g>
							<g>
								<g>
									<path style="fill:#B11722;" d="M421.226,247.656c-0.349,0.115-0.738-0.04-0.906-0.379
										c-2.558-5.14-3.742-11.549-3.792-11.82c-0.074-0.408,0.197-0.799,0.604-0.873c0.408-0.074,0.798,0.196,0.873,0.604
										c0.012,0.064,1.198,6.474,3.659,11.42c0.185,0.371,0.034,0.822-0.338,1.007
										C421.293,247.631,421.26,247.645,421.226,247.656z"/>
								</g>
							</g>
						</g>
						<g>
							<g>
								<g>
									<path style="fill:#B11722;" d="M415.443,243.436c-0.13,0.043-0.274,0.051-0.417,0.015
										c-0.402-0.101-0.646-0.509-0.545-0.911c0.055-0.22,1.365-5.413,2.164-7.05c0.181-0.373,0.63-0.528,1.003-0.346
										c0.373,0.182,0.528,0.631,0.346,1.004c-0.73,1.498-2.044,6.706-2.057,6.759
										C415.871,243.165,415.679,243.358,415.443,243.436z"/>
								</g>
							</g>
						</g>
					</g>
					<g>
						<g>
							<g>
								<g>
									<path style="fill:#B11722;" d="M458.154,223.392c-0.211,0.069-0.45,0.045-0.649-0.086
										c-7.432-4.912-22.694-11.525-22.847-11.592c-0.38-0.165-0.556-0.606-0.391-0.987c0.164-0.38,0.606-0.556,0.987-0.391
										c0.154,0.067,15.536,6.732,23.079,11.717c0.346,0.229,0.441,0.694,0.212,1.04
										C458.448,223.24,458.309,223.341,458.154,223.392z"/>
								</g>
							</g>
						</g>
					</g>
				</g>
				<g>
					<g>
						<g>
							<g>
								<g>
									<g>
										<path style="fill:#E05042;" d="M382.432,192.954c1.973,5.984-1.301,20.515,1.874,46.093
											c0.232,1.877,0.501,3.82,0.805,5.831c0.29,1.883,0.612,3.828,0.974,5.837c0.335,1.868,0.71,3.795,1.113,5.769
											c0.357,1.733,0.742,3.506,1.158,5.323c0.426,1.866,0.879,3.77,1.374,5.724c0.138,0.553,0.289,1.146,0.451,1.771
											c0.038,0.157,0.078,0.314,0.121,0.475c0.038,0.141,0.074,0.284,0.112,0.431c0.027,0.108,0.055,0.216,0.084,0.323
											c0.021,0.079,0.041,0.159,0.062,0.238c0.035,0.141,0.072,0.285,0.111,0.428c0.007,0.028,0.013,0.057,0.022,0.084
											c0.044,0.175,0.09,0.349,0.137,0.525c0.006,0.026,0.012,0.052,0.02,0.077c0.039,0.151,0.079,0.305,0.122,0.461
											c0.188,0.723,0.387,1.475,0.594,2.256c0.053,0.194,0.104,0.391,0.158,0.588c0.069,0.261,0.141,0.527,0.212,0.795
											c0.14,0.527,0.287,1.063,0.434,1.61c0.074,0.273,0.148,0.549,0.225,0.825c0.158,0.588,0.321,1.183,0.487,1.787
											c0.031,0.11,0.062,0.222,0.091,0.335c0.393,1.437,0.805,2.921,1.23,4.436c0.193,0.685,0.387,1.375,0.584,2.073
											c0.238,0.84,0.479,1.687,0.723,2.539c0.356,1.246,0.72,2.501,1.086,3.755c0.156,0.53,0.311,1.061,0.466,1.591
											c0.141,0.479,0.285,0.958,0.427,1.437c0.173,0.575,0.342,1.148,0.515,1.72c0.115,0.382,0.229,0.762,0.346,1.141
											c0.07,0.238,0.142,0.473,0.214,0.708c0.145,0.473,0.289,0.943,0.432,1.41c0.143,0.467,0.288,0.932,0.432,1.393
											c0.102,0.325,0.203,0.648,0.301,0.972c0.092,0.287,0.181,0.572,0.271,0.854c0.026,0.078,0.048,0.154,0.074,0.232
											c0.051,0.164,0.103,0.328,0.156,0.488c0.108,0.335,0.211,0.665,0.317,0.995c0.124,0.385,0.248,0.767,0.37,1.147
											c0.99,3.043,1.956,5.869,2.865,8.321c-6.758,7.773-18.241,14.556-31.742,18.633l-7.49-4.872l-6.272,7.947
											c-13.193,1.932-27.315,1.174-40.339-3.567c-4.3-8.791-11.389-41.036-13.396-50.684c-0.399-1.919-0.76-3.848-1.092-5.781
											c-1.596-9.288-2.449-18.724-3.024-28.63c-0.033-0.54-0.061-1.079-0.092-1.62c-0.004-0.063-0.009-0.128-0.011-0.194
											c-0.611-8.347-11.518-32.948-10.42-41.801c2.176-17.543,13.358-12.923,23.437-15.625c3.308-0.887,6.09-2.012,8.368-3.162
											c0.95-0.478,1.809-0.961,2.588-1.433c0.326-0.194,0.63-0.383,0.922-0.58c3.132-2.03,4.845-3.744,4.845-3.744l22.866-2.388
											c2.265,2.664,4.934,4.208,7.737,5.206c0.311,0.106,0.621,0.212,0.938,0.314c0.468,0.146,0.941,0.28,1.412,0.4
											C371.299,186.27,379.849,185.119,382.432,192.954z"/>
									</g>
								</g>
							</g>
							<g>
								<g>
									<path style="fill:#B11722;" d="M325.038,316.075c-0.254,0-0.493-0.156-0.587-0.408
										c-12.513-33.586-18.99-91.587-19.054-92.169c-0.038-0.344,0.21-0.653,0.554-0.691c0.344-0.036,0.653,0.211,0.691,0.554
										c0.064,0.581,6.524,58.429,18.983,91.868c0.121,0.324-0.044,0.685-0.368,0.805
										C325.185,316.062,325.111,316.075,325.038,316.075z"/>
								</g>
							</g>
							<g>
								<g>
									<g>
										<path style="fill:#B11722;" d="M347.157,192.357c0.24,0.727-0.633,1.669-1.95,2.103c-1.317,0.434-2.579,0.197-2.819-0.53
											c-0.24-0.727,0.633-1.669,1.95-2.103C345.655,191.392,346.917,191.63,347.157,192.357z"/>
									</g>
								</g>
							</g>
							<g>
								<g>
									<g>
										<path style="fill:#B11722;" d="M357.373,189.751c0.24,0.727-0.633,1.669-1.95,2.104c-1.317,0.434-2.578,0.197-2.819-0.53
											c-0.24-0.727,0.633-1.669,1.95-2.104C355.871,188.787,357.133,189.024,357.373,189.751z"/>
									</g>
								</g>
							</g>
							<g>
								<g>
									<g>
										<path style="fill:#B11722;" d="M360.263,195.214c-0.279,0-0.534-0.188-0.606-0.471c-0.086-0.335,0.116-0.676,0.451-0.762
											c8.818-2.258,9.37-7.567,9.389-7.792c0.029-0.343,0.332-0.596,0.674-0.573c0.343,0.027,0.6,0.325,0.575,0.669
											c-0.019,0.261-0.586,6.414-10.327,8.909C360.367,195.208,360.314,195.214,360.263,195.214z"/>
									</g>
								</g>
							</g>
							<g>
								<g>
									<path style="fill:#B11722;" d="M373.819,250.516c-11.763,0-21.951-3.018-28.774-5.758
										c-8.502-3.413-13.775-7.154-13.828-7.192c-0.281-0.201-0.346-0.592-0.145-0.873c0.201-0.281,0.592-0.346,0.873-0.145
										c0.051,0.037,5.229,3.706,13.602,7.063c7.713,3.093,19.795,6.548,33.559,5.443c0.346-0.026,0.646,0.229,0.674,0.574
										c0.028,0.345-0.229,0.647-0.574,0.674C377.38,250.448,375.582,250.516,373.819,250.516z"/>
								</g>
							</g>
							<g>
								<g>
									<g>
										<path style="fill:#B11722;" d="M338.216,272.646c0,0,28.104-7.163,45.608-7.373l5.35,23.174
											c0,0-27.748,4.666-45.306,7.727L338.216,272.646z"/>
									</g>
								</g>
							</g>
							<g>
								<g>
									<g>
										<path style="fill:#B11722;" d="M322.458,200.648c-5.412,0-9.549-1.514-12.373-3.071c-4.495-2.479-6.676-5.531-6.767-5.659
											c-0.199-0.283-0.131-0.673,0.151-0.872c0.283-0.2,0.673-0.131,0.872,0.151l0,0c0.021,0.03,2.139,2.979,6.403,5.314
											c3.925,2.151,10.536,4.209,19.742,1.803c0.333-0.086,0.676,0.113,0.764,0.448c0.087,0.334-0.113,0.676-0.448,0.764
											C327.75,200.323,324.967,200.648,322.458,200.648z"/>
									</g>
								</g>
							</g>
							<g>
								<g>
									<path style="fill:#26120C;" d="M394.401,284.977c-0.425-1.516-0.837-2.999-1.23-4.436
										C393.568,281.979,393.977,283.461,394.401,284.977z"/>
								</g>
							</g>
							<g>
								<g>
									<path style="fill:#26120C;" d="M392.369,277.594c-0.147-0.547-0.293-1.083-0.434-1.61
										C392.078,276.51,392.222,277.047,392.369,277.594z"/>
								</g>
							</g>
						</g>
						<g>
							<g>
								<g>
									<path style="fill:#B11722;" d="M386.183,247.632c-0.044,0.015-0.091,0.025-0.139,0.031
										c-0.411,0.054-0.788-0.236-0.841-0.647c-1.366-10.464-2.879-22.893-3.025-26.397c-0.017-0.414,0.304-0.764,0.719-0.781
										c0.414-0.017,0.764,0.304,0.781,0.719c0.144,3.456,1.651,15.834,3.013,26.266
										C386.738,247.185,386.518,247.521,386.183,247.632z"/>
								</g>
							</g>
						</g>
					</g>
					<g>
						<g>
							<g>
								<g>
									<g>
										<g>
											<path style="fill:#26120C;" d="M358.84,130.856c0,0,7.254,5.696,2.494,14.387
												C361.334,145.243,358.728,135.094,358.84,130.856z"/>
										</g>
									</g>
								</g>
								<g>
									<g>
										<g>
											<path style="fill:#26120C;" d="M329.804,170.063c0,0-4.702,4.566-5.668,1.196c-0.967-3.37,0.67-5.051,0.67-5.051
												s-5.076,4.878-5.158,1.204c-0.082-3.674,2.567-6.955,2.567-6.955s-4.711-3.448-3.174-8.966
												c1.536-5.518,1.728-9.562,0.189-14.08c-1.539-4.518-0.836-9.191,1.395-11.214c3.262-2.957,8.004-2.497,8.004-2.497
												s2.524-8.263,11.964-8.042c9.44,0.221,14.937-7.145,19.701-5.228c4.764,1.917,10.22,17.647-2.594,22.306
												C357.699,132.736,332.315,149.757,329.804,170.063z"/>
										</g>
									</g>
								</g>
								<g>
									<g>
										<g>
											<g>
												<g>
													<g>
														<g>
															<path style="fill:#F69D84;" d="M353.773,174.555l0.623,5.965c-0.639,0.637-1.293,1.201-1.957,1.7
																c-9.708,7.303-21.688,0.771-21.688,0.771l-2.162-20.684l22.18,10.787L353.773,174.555z"/>
														</g>
													</g>
												</g>
											</g>
										</g>
									</g>
									<g>
										<g>
											<g>
												<g>
													<g>
														<g>
															<path style="fill:#26120C;" d="M353.719,174.034l0.678,6.486c-0.639,0.637-1.293,1.201-1.957,1.7
																c-9.185-2.57-16.571-11.153-16.571-11.153l14.902,2.027L353.719,174.034z"/>
														</g>
													</g>
												</g>
											</g>
										</g>
									</g>
								</g>
								<g>
									<g>
										<g>
											<g>
												<g>
													<g>
														<path style="fill:#FF7C66;" d="M358.466,147.339c0,0,2.97-4.357,5.303-0.554c2.333,3.803,1.707,12.059-3.587,11.271
															L358.466,147.339z"/>
													</g>
												</g>
											</g>
										</g>
									</g>
								</g>
								<g>
									<g>
										<g>
											<path style="fill:#F69D84;" d="M363.546,160.998c0,0,1.307,12.331-11.525,13.644
												c-12.752,1.309-22.486-7.796-22.987-8.212c-0.009-0.007-0.015-0.011-0.015-0.011l-0.41-2.577l-2.131-13.379l-1.14-7.15
												c0,0-2.982-12.778,9.077-16.425c8.81-2.666,17.397-2.053,22.142,2.192c0.153,0.137,0.303,0.278,0.445,0.424
												c1.512,1.508,2.574,3.43,3.051,5.777l1.748,12.875l0.429,3.155L363.546,160.998z"/>
										</g>
									</g>
								</g>
								<g>
									<g>
										<g>
											<path style="fill:#26120C;" d="M326.478,150.464c0,0,2.888,0.903,4.16,4.406l0,0c1.908-0.199,3.243-1.982,2.894-3.868
												c-0.203-1.095-0.456-2.41-0.762-3.888c-0.916-4.432-2.332-5.835,0.239-8.611c2.571-2.776,0.154-4.426,2.495-6.391
												c2.567-2.155,8.913,1.661,13.581,0.694c5.541-1.148,5.071-4.907,9.897-0.602c0,0-1.28-6.487-7.576-8.244
												c-6.296-1.757-24.002-0.209-26.714,8.225C321.98,140.62,326.478,150.464,326.478,150.464z"/>
										</g>
									</g>
								</g>
								<g>
									<g>
										<g>
											<g>
												<g>
													<g>
														<path style="fill:#26120C;" d="M336.629,141.153L336.629,141.153c0.851,1.459,2.713,1.969,4.187,1.144
															c0.861-0.482,1.884-0.974,2.979-1.335c1.553-0.512,2.367-2.212,1.773-3.735l0,0
															C345.568,137.227,339.166,137.308,336.629,141.153z"/>
													</g>
												</g>
											</g>
										</g>
									</g>
								</g>
								<g>
									<g>
										<g>
											<g>
												<g>
													<g>
														<path style="fill:#26120C;" d="M360.354,138.497L360.354,138.497c-0.5,1.51-2.117,2.342-3.635,1.869
															c-0.887-0.276-1.925-0.53-3.005-0.65c-1.53-0.169-2.612-1.577-2.361-3.096l0,0
															C351.353,136.62,357.268,135.449,360.354,138.497z"/>
													</g>
												</g>
											</g>
										</g>
									</g>
								</g>
								<g>
									<g>
										<g>
											<g>
												<g>
													<g>
														<path style="fill:#FF7C66;" d="M345.236,151.493c0.094,0.898-1.68,1.819-3.961,2.057
															c-2.281,0.238-4.207-0.296-4.301-1.194c-0.094-0.898,1.679-1.819,3.961-2.057
															C343.216,150.06,345.142,150.595,345.236,151.493z"/>
													</g>
												</g>
											</g>
										</g>
									</g>
								</g>
								<g>
									<g>
										<g>
											<g>
												<g>
													<g>
														<path style="fill:#FF7C66;" d="M362.231,151.312c-0.315,0.065-0.648,0.116-0.99,0.152
															c-2.279,0.238-4.205-0.297-4.299-1.195c-0.094-0.898,1.68-1.82,3.959-2.058c0.309-0.032,0.611-0.05,0.902-0.054
															L362.231,151.312z"/>
													</g>
												</g>
											</g>
										</g>
									</g>
								</g>
								<g>
									<g>
										<g>
											<g>
												<g>
													<g>
														<path style="fill:#26120C;" d="M345.472,146.472c0.129,1.233-0.326,2.291-1.016,2.363
															c-0.69,0.072-1.354-0.869-1.483-2.102c-0.129-1.233,0.326-2.291,1.016-2.364
															C344.679,144.297,345.343,145.238,345.472,146.472z"/>
													</g>
												</g>
											</g>
										</g>
									</g>
								</g>
								<g>
									<g>
										<g>
											<g>
												<g>
													<g>
														<path style="fill:#26120C;" d="M357.865,145.176c0.129,1.233-0.326,2.291-1.016,2.364
															c-0.69,0.072-1.354-0.869-1.483-2.102c-0.129-1.233,0.326-2.291,1.016-2.363
															C357.072,143.002,357.736,143.943,357.865,145.176z"/>
													</g>
												</g>
											</g>
										</g>
									</g>
								</g>
								<g>
									<g>
										<g>
											<g>
												<g>
													<g>
														<path style="fill:#26120C;" d="M353.831,157.924c-4.507,0.471-8.603-3.009-8.657-3.056
															c-0.213-0.184-0.236-0.506-0.052-0.719c0.184-0.213,0.507-0.236,0.719-0.052c0.268,0.231,6.614,5.606,11.772,1.047
															c0.211-0.186,0.533-0.167,0.72,0.044c0.187,0.211,0.167,0.534-0.044,0.72
															C356.846,157.184,355.316,157.768,353.831,157.924z"/>
													</g>
												</g>
											</g>
										</g>
									</g>
								</g>
								<g>
									<g>
										<g>
											<g>
												<g>
													<g>
														<path style="fill:#26120C;" d="M332.527,161.007c-0.044,0.143-1.274,4.078-3.493,5.424
															c-0.008-0.007-0.014-0.011-0.014-0.011l-0.41-2.578C328.61,163.842,330.599,163.285,332.527,161.007z"/>
													</g>
												</g>
											</g>
										</g>
									</g>
								</g>
								<g>
									<g>
										<g>
											<g>
												<g>
													<g>
														<path style="fill:#F69D84;" d="M329.373,152.677c0,0-5.623-6.108-8.692-0.526c-2.529,4.6,4.268,15.19,9.76,10.744
															L329.373,152.677z"/>
													</g>
												</g>
											</g>
										</g>
									</g>
								</g>
								<g>
									<g>
										<g>
											<g>
												<g>
													<g>
														<path style="fill:#26120C;" d="M329.558,160.972c-0.255,0.027-0.495-0.143-0.551-0.4
															c-1.072-4.956-5.454-6.265-5.64-6.318c-0.27-0.077-0.427-0.359-0.35-0.63c0.077-0.271,0.358-0.428,0.629-0.352
															c0.21,0.059,5.154,1.515,6.359,7.084c0.059,0.275-0.116,0.547-0.391,0.607
															C329.595,160.967,329.577,160.97,329.558,160.972z"/>
													</g>
												</g>
											</g>
										</g>
									</g>
								</g>
								<g>
									<g>
										<g>
											<g>
												<g>
													<g>
														<path style="fill:#26120C;" d="M324.502,158.39c-0.148,0.015-0.301-0.033-0.414-0.146
															c-0.199-0.199-0.2-0.522-0.001-0.721c0.185-0.186,1.855-1.809,3.419-1.579c0.279,0.041,0.471,0.3,0.43,0.579
															c-0.041,0.279-0.301,0.471-0.579,0.43c-0.9-0.133-2.144,0.886-2.548,1.29
															C324.724,158.33,324.614,158.378,324.502,158.39z"/>
													</g>
												</g>
											</g>
										</g>
									</g>
								</g>
								<g>
									<g>
										<g>
											<g>
												<g>
													<g>
														<path style="fill:#26120C;" d="M351.161,152.153c-0.28,0.029-0.531-0.174-0.56-0.454
															c-0.029-0.28,0.174-0.531,0.454-0.56c1.866-0.195,2.636-1.272,2.881-1.729c-2.46-3.961-4.91-7.955-4.935-7.996
															c-0.147-0.24-0.072-0.554,0.168-0.701c0.241-0.148,0.554-0.072,0.702,0.168c0.025,0.041,2.57,4.19,5.076,8.223
															c0.081,0.13,0.099,0.29,0.049,0.436C354.964,149.633,354.169,151.839,351.161,152.153z"/>
													</g>
												</g>
											</g>
										</g>
									</g>
								</g>
							</g>
						</g>
						<g>
							<g>
								<g style="opacity:0.5;">
									<g>
										<g>
											<path style="fill:#FFFFFF;" d="M351.406,148.113c0.104,1.716-2.684,3.281-6.227,3.496
												c-3.543,0.215-6.5-1.002-6.604-2.717c-0.104-1.716,2.684-3.281,6.227-3.496
												C348.345,145.18,351.302,146.397,351.406,148.113z"/>
										</g>
									</g>
								</g>
								<g style="opacity:0.5;">
									<g>
										<g>
											<path style="fill:#FFFFFF;" d="M367.815,147.424c0.104,1.716-2.684,3.281-6.227,3.496
												c-3.543,0.215-6.5-1.002-6.604-2.717c-0.104-1.716,2.684-3.281,6.227-3.496
												C364.754,144.491,367.711,145.708,367.815,147.424z"/>
										</g>
									</g>
								</g>
								<g>
									<g>
										<g>
											<path style="fill:#26120C;" d="M355.016,148.188c-0.088,0-0.176-0.03-0.247-0.093c-1.35-1.178-3.128-0.02-3.203,0.029
												c-0.173,0.115-0.406,0.068-0.521-0.104c-0.115-0.172-0.069-0.405,0.103-0.52c0.798-0.535,2.686-1.219,4.115,0.029
												c0.156,0.137,0.172,0.374,0.036,0.53C355.225,148.145,355.12,148.188,355.016,148.188z"/>
										</g>
									</g>
								</g>
							</g>
							<g>
								<g>
									<path style="fill:#26120C;" d="M325.012,149.914c-0.112,0-0.223-0.05-0.297-0.145c-0.127-0.164-0.098-0.4,0.066-0.527
										c5.663-4.393,13.625-1.225,13.962-1.088c0.192,0.078,0.284,0.297,0.206,0.49c-0.078,0.192-0.298,0.284-0.49,0.206
										c-0.078-0.032-7.901-3.139-13.218,0.985C325.174,149.888,325.093,149.914,325.012,149.914z"/>
								</g>
							</g>
						</g>
					</g>
				</g>
				<g>
					<g>
						<g>
							<g>
								<path style="fill:#396C61;" d="M314.466,323.466c0,0,1.768,51.612,64.062,31.057c33.274-10.979,48.028-19.409,48.028-19.409
									s10.495,29.116,16.131,41C448.324,387.998,464,417.07,464,417.07l26.876-6.617c0,0-31.304-108.94-50.633-113.545
									c-19.329-4.605-42.518,2.72-83.423,11.999C356.819,308.907,321.095,314.38,314.466,323.466z"/>
							</g>
						</g>
					</g>
					<g>
						<g>
							<g>
								<path style="fill:#398889;" d="M464.753,407.296c-0.322,0.106-0.687-0.017-0.873-0.319
									c-8.678-14.043-17.296-35.309-24.22-52.396c-2.915-7.193-5.432-13.406-7.533-18.048c-2.845-6.287-4.002-7.539-4.438-7.727
									c-1.93-0.828-8.265,2.037-16.285,5.663c-11.618,5.253-29.175,13.191-49.592,17.427c-10.474,2.173-19.546,0.751-26.962-4.226
									c-13.201-8.86-16.46-25.653-16.592-26.363c-0.076-0.407,0.193-0.799,0.601-0.875c0.407-0.076,0.799,0.193,0.875,0.6
									c0.031,0.168,3.287,16.898,15.962,25.398c7.067,4.739,15.751,6.084,25.811,3.997c20.255-4.203,37.721-12.099,49.279-17.325
									c9.327-4.217,14.957-6.763,17.495-5.674c2.308,0.99,5.966,9.798,12.771,26.59c6.903,17.035,15.494,38.235,24.106,52.17
									c0.218,0.353,0.109,0.815-0.244,1.033C464.861,407.253,464.808,407.278,464.753,407.296z"/>
							</g>
						</g>
					</g>
					<g>
						<g>
							<g>
								<path style="fill:#398889;" d="M487.626,402.109c-0.014,0.005-0.029,0.009-0.044,0.013l-27.165,7.183
									c-0.401,0.106-0.811-0.133-0.917-0.534c-0.106-0.401,0.13-0.818,0.534-0.917l27.165-7.183
									c0.401-0.106,0.812,0.133,0.918,0.534C488.217,401.591,488,401.986,487.626,402.109z"/>
							</g>
						</g>
					</g>
				</g>
				<g>
					<g>
						<g>
							<g>
								<path style="fill:#26120C;" d="M375.596,311.238l82.403-7.77c0.158-0.015,0.275-0.155,0.26-0.314l-0.966-10.24
									c-0.015-0.158-0.156-0.275-0.314-0.26l-82.403,7.77c-0.158,0.015-0.275,0.155-0.26,0.314l0.966,10.24
									C375.297,311.136,375.438,311.253,375.596,311.238z"/>
							</g>
						</g>
					</g>
					<g>
						<g>
							<g>
								<path style="fill:#26120C;" d="M466.946,302.624c3.123-0.294,5.658-2.651,6.179-5.744l10.038-59.576
									c0.613-3.641-2.392-6.874-6.068-6.527l-37.151,3.503c-2.507,0.236-4.55,2.111-5,4.589l-12.35,67.938L466.946,302.624z"/>
							</g>
						</g>
					</g>
					<g>
						<g>
							<g>
								<path style="fill:#E05042;" d="M442.786,290.578l-0.683,2.715l2.523-0.193l-0.44,3.203l-2.919,0.224l-0.757,2.953
									l-3.336,0.256l0.757-2.952l-2.064,0.158l-0.757,2.953l-3.336,0.256l0.757-2.952l-2.523,0.193l0.44-3.203l2.919-0.224
									l0.683-2.714l-2.523,0.193l0.44-3.203l2.919-0.224l0.757-2.953l3.337-0.256l-0.757,2.953l2.064-0.158l0.757-2.953
									l3.336-0.256l-0.757,2.953l2.523-0.193l-0.44,3.203L442.786,290.578z M439.45,290.834l-2.065,0.158l-0.683,2.714
									l2.065-0.158L439.45,290.834z"/>
							</g>
						</g>
					</g>
					<g>
						<g>
							<g>
								<g>
									<g>
										<path style="fill:#F4AD4B;" d="M478.585,247.118c-0.868,3.89-4.4,7.291-7.888,7.596s-5.613-2.602-4.745-6.493
											c0.868-3.891,4.4-7.291,7.888-7.596C477.329,240.321,479.453,243.228,478.585,247.118z"/>
									</g>
								</g>
							</g>
						</g>
						<g>
							<g>
								<g>
									<g>
										<g>
											<path style="fill:#26120C;" d="M471.525,246.414c-0.174,0.778-0.56,1.43-0.864,1.457
												c-0.303,0.027-0.409-0.583-0.235-1.361c0.174-0.778,0.56-1.43,0.864-1.457
												C471.594,245.026,471.699,245.635,471.525,246.414z"/>
										</g>
									</g>
								</g>
							</g>
							<g>
								<g>
									<g>
										<g>
											<path style="fill:#26120C;" d="M474.821,246.126c-0.174,0.778-0.56,1.43-0.864,1.457s-0.409-0.583-0.235-1.361
												c0.174-0.778,0.56-1.43,0.864-1.457C474.889,244.738,474.995,245.348,474.821,246.126z"/>
										</g>
									</g>
								</g>
							</g>
						</g>
						<g>
							<g>
								<g>
									<g>
										<path style="fill:#26120C;" d="M471.558,251.096c-2.716,0.237-2.663-2.737-2.662-2.767
											c0.005-0.163,0.135-0.334,0.291-0.383c0.156-0.049,0.279,0.043,0.275,0.205c-0.003,0.108-0.034,2.53,2.232,2.332
											c2.269-0.198,3.338-2.715,3.383-2.822c0.07-0.168,0.24-0.285,0.379-0.262c0.14,0.023,0.197,0.178,0.128,0.346
											C475.572,247.776,474.274,250.858,471.558,251.096z"/>
									</g>
								</g>
							</g>
						</g>
					</g>
					<g>
						<g>
							<g>
								<path style="fill:#26120C;" d="M434.942,238.87l-12.247,67.377l-4.245,0.4l12.247-67.377
									c0.455-2.479,2.494-4.356,5.002-4.592l4.245-0.4C437.436,234.514,435.396,236.391,434.942,238.87z"/>
							</g>
						</g>
						<g>
							<g>
								<path style="fill:#564C54;" d="M423.08,305.805c-0.037,0-0.074-0.003-0.112-0.01c-0.34-0.061-0.566-0.387-0.505-0.727
									l12.113-67.231c0.061-0.34,0.385-0.568,0.727-0.505c0.34,0.061,0.566,0.387,0.505,0.727l-12.113,67.231
									C423.641,305.593,423.377,305.805,423.08,305.805z"/>
							</g>
						</g>
					</g>
					<g>
						<g>
							<g>
								<path style="fill:#564C54;" d="M448.454,269.872c-0.5,3.729,2.052,6.473,5.702,6.129c3.65-0.344,7.014-3.646,7.514-7.376
									c0.501-3.729-2.052-6.473-5.702-6.129C452.318,262.842,448.954,266.144,448.454,269.872z"/>
							</g>
						</g>
					</g>
				</g>
				<g>
					<g>
						<g>
							<g>
								<path style="fill:#F69D84;" d="M396.391,286.066c0,0,19.339-4.317,26.095-1.102l-2.365,12.271
									c0,0-10.902-0.757-13.438,0.501c-2.535,1.258-2.682,6.154-12.459,6.429L396.391,286.066z"/>
							</g>
						</g>
					</g>
					<g>
						<g>
							<g>
								<path style="fill:#E05042;" d="M394.269,283.64L392,283.273l-4.559-0.744c-3.037-0.509-6.073-1.049-9.096-1.615
									c-6.047-1.113-12.055-2.328-17.942-3.672c-2.939-0.677-5.849-1.398-8.702-2.151c-2.847-0.761-5.642-1.572-8.296-2.455
									c-2.641-0.885-5.19-1.822-7.29-2.807c-1.037-0.487-1.965-0.988-2.593-1.398c-0.007-0.006-0.014-0.009-0.022-0.015
									l-0.086-0.141c-0.347-0.553-0.666-1.124-0.994-1.689c-0.638-1.139-1.265-2.29-1.843-3.469
									c-1.178-2.347-2.215-4.782-3.159-7.264c-1.894-4.965-3.288-10.191-4.301-15.548c-0.5-2.679-0.889-5.394-1.183-8.13
									c-0.302-2.736-0.491-5.495-0.582-8.257c-0.104-2.762-0.105-5.531,0-8.265c0.053-1.367,0.134-2.724,0.242-4.048
									c0.051-0.662,0.108-1.316,0.171-1.946l0.101-0.91l0.075-0.615l-31.276-4.86l-0.082,0.561l-0.056,0.411l-0.093,0.765
									l-0.161,1.444c-0.096,0.941-0.176,1.861-0.245,2.775c-0.126,1.828-0.209,3.625-0.255,5.419
									c-0.095,3.582-0.047,7.137,0.135,10.689c0.389,7.099,1.316,14.184,2.862,21.206c0.387,1.754,0.812,3.506,1.273,5.251
									c0.466,1.741,0.981,3.48,1.524,5.21c1.096,3.456,2.362,6.882,3.792,10.253c1.335,3.093,2.807,6.145,4.446,9.121
									c0.139,0.26,0.283,0.521,0.43,0.779c0.892,1.615,1.85,3.202,2.835,4.772c0.501,0.778,0.996,1.561,1.522,2.328l0.389,0.579
									l0.195,0.286l0.389,0.562c0.702,0.99,1.414,1.824,2.089,2.528c0.678,0.714,1.342,1.327,1.972,1.859
									c0.639,0.546,1.242,1.007,1.837,1.436c1.177,0.844,2.282,1.526,3.336,2.122c1.486,0.834,2.883,1.511,4.231,2.104
									c0.563,0.248,1.117,0.483,1.663,0.706c1.861,0.758,3.648,1.39,5.403,1.963c1.754,0.576,3.471,1.075,5.176,1.537
									c3.402,0.923,6.73,1.689,10.034,2.375c3.301,0.692,6.574,1.278,9.835,1.816c6.518,1.08,12.986,1.918,19.445,2.628
									c3.23,0.342,6.457,0.652,9.688,0.93c1.616,0.14,3.232,0.275,4.855,0.393l2.44,0.166l2.508,0.155l2.397-24.42L394.269,283.64
									z M332.895,267.961c-0.039-0.043-0.058-0.067-0.012-0.044c0.03,0.015,0.122,0.082,0.264,0.219
									c0.03,0.032,0.063,0.065,0.102,0.108C333.082,268.124,332.957,268.023,332.895,267.961z"/>
							</g>
						</g>
					</g>
					<g>
						<g>
							<path style="fill:#B11722;" d="M323.03,295.734c-1.348-0.593-2.746-1.27-4.231-2.104c-1.054-0.596-2.158-1.278-3.336-2.122
								c-0.595-0.43-1.198-0.89-1.837-1.436c-0.629-0.532-1.293-1.145-1.972-1.859c-0.675-0.704-1.387-1.538-2.089-2.528
								l-0.389-0.562l-0.195-0.286l-0.389-0.579c-0.526-0.767-1.021-1.55-1.522-2.328c-0.986-1.57-1.943-3.157-2.835-4.772
								c-0.146-0.258-0.291-0.519-0.43-0.779c0.08-0.043,0.162-0.084,0.247-0.12C304.054,276.258,324.233,276.532,323.03,295.734z"
								/>
						</g>
					</g>
					<g>
						<g>
							<g>
								<path style="fill:#B11722;" d="M365.137,306.442c-0.095,0.031-0.199,0.044-0.306,0.034
									c-0.254-0.024-25.613-2.486-39.808-9.146c-14.309-6.713-21.016-19.52-21.294-20.062c-0.189-0.369-0.044-0.821,0.324-1.01
									c0.369-0.188,0.821-0.044,1.011,0.324c0.066,0.128,6.767,12.901,20.597,19.389c13.962,6.551,39.06,8.987,39.312,9.01
									c0.413,0.039,0.716,0.405,0.677,0.818C365.62,306.105,365.411,306.351,365.137,306.442z"/>
							</g>
						</g>
					</g>
					<g>
						<g>
							<g>
								<g>
									<path style="fill:#B11722;" d="M324.326,277.229c-0.253,0.083-0.542,0.03-0.749-0.165
										c-0.302-0.283-0.318-0.758-0.034-1.061c3.506-3.738,8.554-7.488,8.767-7.645c0.332-0.247,0.803-0.177,1.05,0.157
										c0.247,0.333,0.177,0.803-0.157,1.05c-0.051,0.038-5.154,3.829-8.565,7.466
										C324.549,277.125,324.441,277.191,324.326,277.229z"/>
								</g>
							</g>
						</g>
						<g>
							<g>
								<g>
									<path style="fill:#B11722;" d="M332.641,269.94c-0.026,0.009-0.053,0.016-0.081,0.022c-2.986,0.63-6.922,1.906-6.961,1.919
										c-0.394,0.128-0.818-0.087-0.946-0.482c-0.128-0.393,0.086-0.815,0.479-0.945c0.001,0,0.002-0.001,0.003-0.001
										c0.164-0.054,4.052-1.315,7.116-1.96c0.405-0.086,0.804,0.174,0.889,0.579C333.219,269.451,332.999,269.822,332.641,269.94
										z"/>
								</g>
							</g>
						</g>
					</g>
					<g>
						<g>
							<g>
								<g>
									<path style="fill:#B11722;" d="M325.893,251.614c-0.007,0.003-0.015,0.005-0.022,0.007
										c-0.397,0.118-0.815-0.109-0.933-0.507c-0.286-0.966-7.005-23.792-7.009-35.281c0-0.414,0.336-0.75,0.75-0.751
										c0.414,0,0.751,0.336,0.751,0.75c0.004,11.273,6.877,34.621,6.947,34.855C326.492,251.078,326.276,251.488,325.893,251.614
										z"/>
								</g>
							</g>
						</g>
						<g>
							<g>
								<g>
									<path style="fill:#B11722;" d="M319.382,222.929c-0.205,0.068-0.437,0.047-0.634-0.077
										c-0.351-0.22-0.457-0.683-0.237-1.035l2.461-3.925c0.22-0.351,0.684-0.457,1.034-0.237c0.351,0.22,0.457,0.683,0.237,1.035
										l-2.461,3.925C319.685,222.77,319.542,222.876,319.382,222.929z"/>
								</g>
							</g>
						</g>
					</g>
					<g>
						<g>
							<g>
								<g>
									<g>
										<path style="fill:#B11722;" d="M382.359,307.38c-0.099,0.033-0.206,0.045-0.316,0.033
											c-0.412-0.045-0.71-0.415-0.665-0.827l2.578-23.683c0.045-0.412,0.415-0.71,0.827-0.665
											c0.412,0.045,0.71,0.415,0.665,0.828l-2.578,23.683C382.837,307.05,382.63,307.291,382.359,307.38z"/>
									</g>
								</g>
							</g>
						</g>
					</g>
				</g>
				<g>
					<path style="fill:#FFFFFF;" d="M362.68,269.815c-0.262,0-0.506-0.166-0.594-0.427c-7.264-21.672-17.746-75.653-17.851-76.196
						c-0.066-0.339,0.156-0.668,0.496-0.733c0.34-0.066,0.668,0.156,0.733,0.496c0.105,0.542,10.572,54.443,17.809,76.036
						c0.11,0.328-0.067,0.683-0.394,0.793C362.813,269.804,362.745,269.815,362.68,269.815z"/>
				</g>
				<g>
					<path style="fill:#FFFFFF;" d="M378.197,267.755c-0.308,0-0.576-0.228-0.619-0.541c-4.421-32.26-22.874-75.681-23.06-76.116
						c-0.136-0.318,0.012-0.686,0.33-0.822c0.318-0.135,0.686,0.012,0.822,0.33c0.187,0.436,18.706,44.013,23.149,76.438
						c0.047,0.343-0.193,0.658-0.535,0.705C378.254,267.753,378.225,267.755,378.197,267.755z"/>
				</g>
				<g>
					<path style="fill:#FFFFFF;" d="M333.611,351.905c-1.331,0-2.763-0.463-4.219-1.375c-5.323-3.333-11.763-13.429-14.15-28.474
						c-0.054-0.341,0.179-0.662,0.52-0.716c0.342-0.055,0.662,0.178,0.716,0.52c2.326,14.656,8.495,24.426,13.578,27.609
						c1.726,1.081,3.366,1.431,4.743,1.012c1.104-0.335,1.956-1.091,2.604-2.312c4.43-8.346-3.273-33.499-3.352-33.752
						c-0.102-0.33,0.083-0.681,0.413-0.783c0.33-0.102,0.681,0.082,0.783,0.413c0.326,1.053,7.934,25.906,3.261,34.709
						c-0.801,1.509-1.927,2.492-3.346,2.923C334.666,351.83,334.147,351.905,333.611,351.905z"/>
				</g>
			</g>
		</g>
		<g>
			<g>
				<g>
					<g>
						<path style="fill:#F4AD4B;" d="M299.004,431.838c-0.164,0.703-0.354,1.39-0.574,2.059c-1.472,4.508-4.173,8.113-7.843,9.603
							c-13.903,5.645-26.971,3.692-53.566,3.073c-26.593-0.618-46.341-7.661-43.876-29.555c0.196-1.728,0.531-3.343,0.983-4.849
							c0.592-1.979,1.39-3.771,2.336-5.391c0,0,0,0,0-0.003c1.113-1.911,2.434-3.583,3.874-5.045
							c7.463-7.576,18.705-10.055,28.768-6.607c9.939,3.406,27.51,5.055,45.802,5.422
							C294.562,400.943,301.911,419.304,299.004,431.838z"/>
					</g>
				</g>
				<g>
					<g>
						<g>
							<path style="fill:#D57635;" d="M299.004,431.838c-0.164,0.703-0.354,1.39-0.574,2.059
								c-4.714,4.109-13.594,6.707-26.455,7.732c-4.043,0.325-8.488,0.484-13.271,0.484c-11.067,0-23.969-0.859-38.057-2.547
								c-11.918-1.432-19.981-5.632-23.969-12.484c-2.968-5.098-3.118-10.666-2.55-14.912c0.592-1.979,1.39-3.771,2.336-5.391
								c-1.033,3.174-3.298,12.169,1.131,19.777c3.813,6.548,11.612,10.57,23.176,11.961
								C262.568,443.532,291.018,441.095,299.004,431.838z"/>
						</g>
					</g>
				</g>
				<g>
					<g>
						<path style="fill:#D57635;" d="M219.538,404.746c-8.168,0.658-14.208,8.114-12.875,16.199c0.026,0.156,0.054,0.313,0.086,0.47
							c1.762,8.812,13.607,8.548,46.51,8.856c25.766,0.241,39.017-8.98,32.165-20.368
							C279.974,400.847,236.931,403.344,219.538,404.746z"/>
					</g>
				</g>
			</g>
			<g>
				<g>
					<g>
						<path style="fill:#26120C;" d="M281.686,411.411c-11.985,14.927-60.893,15.773-67.309,4.592
							c-3.126-5.445-2.265-12.417-0.558-18.138c0.18-0.604,0.369-1.194,0.563-1.765c1.755-5.15,3.972-8.913,3.972-8.913
							s-0.203,5.319,17.837,3.405c2.064-0.218,4.407-0.311,6.921-0.278c0.466,0.005,0.942,0.014,1.42,0.029
							C263.985,390.926,292.047,398.509,281.686,411.411z"/>
					</g>
				</g>
				<g>
					<g>
						<g>
							<g>
								<path style="fill:#F4AD4B;" d="M242.391,402.516c-2.824,3.15-7.727,4.34-14.178,3.434c-0.145-0.02-0.29-0.042-0.434-0.064
									c-8.132-1.255-12.093-5.119-13.96-8.021c0.18-0.604,0.369-1.194,0.563-1.765c1.384,2.671,5.024,7.224,14.026,8.484
									c5.973,0.838,10.455-0.197,12.958-2.989c2.254-2.52,2.852-6.408,1.746-11.281c0.466,0.005,0.942,0.014,1.42,0.029
									C245.638,395.519,244.905,399.709,242.391,402.516z"/>
							</g>
						</g>
					</g>
				</g>
				<g>
					<g>
						<path style="fill:#26120C;" d="M274.909,400.547c0,0,11.483-0.848,12.845-6.643c1.362-5.794-24.975-0.712-27.882-12.645
							c-2.907-11.933,8.739-21.448,12.522-17.957c4.482,4.136-5.333,5.897-5.86,12.036c-0.438,5.099,2.724,9.798,12.53,10.498
							c9.806,0.699,14.191,2.224,14.148,6.783c-0.046,4.96-7.99,10.075-12.819,10.396
							C275.563,403.334,274.909,400.547,274.909,400.547z"/>
					</g>
				</g>
				<g>
					<g>
						<g>
							<g>
								<path style="fill:#26120C;" d="M224.531,382.799c0,0-3.41-4.431-8.954-7.381c-0.807-0.429-1.767,0.218-1.673,1.127
									l1.05,10.159C214.954,386.703,222.919,387.38,224.531,382.799z"/>
							</g>
						</g>
						<g>
							<g>
								<path style="fill:#564C54;" d="M216.904,385.471c-0.45-2.303-0.562-4.724-1.092-7.439c0,0,5.986,3.568,6.344,5.532
									C222.155,383.564,218.852,386.066,216.904,385.471z"/>
							</g>
						</g>
					</g>
					<g>
						<g>
							<g>
								<path style="fill:#26120C;" d="M234.927,383.206c0,0,4.678-2.821,10.811-3.592c1.005-0.126,1.74,0.931,1.286,1.836
									l-4.194,8.362C242.829,389.811,234.762,388.06,234.927,383.206z"/>
							</g>
						</g>
						<g>
							<g>
								<path style="fill:#564C54;" d="M241.059,388.47c1.257-1.982,2.242-4.197,3.724-6.532c0,0-6.874,1.145-7.922,2.845
									C236.861,384.783,239.028,388.315,241.059,388.47z"/>
							</g>
						</g>
					</g>
					<g>
						<g>
							<path style="fill:#26120C;" d="M220.082,382.973c0,0-7.089,1.083-6.557,9.391c0.533,8.307,8.621,9.193,8.621,9.193
								s1.443,2.673,6.436,3.753c3.198,0.692,7.961,0.473,9.168-1.878c0,0,6.945-2.545,6.864-8.734
								C244.526,387.84,236.261,379.421,220.082,382.973z"/>
						</g>
					</g>
				</g>
				<g>
					<g>
						<path style="fill:#26120C;" d="M212.881,402.613c0,0,2.893,11.792,5.317,14.227c2.423,2.435,5.054,3.767,8.432,4.176
							c5.455,0.661,4.445,4.297,2.82,5.547c-1.885,1.449-5.223,0.624-10.236,0.624c-4.331,0-8.413-0.865-9.876-3.711
							c-1.463-2.846-1.365-11.272,0.19-16.01C210.488,404.543,211.84,403.016,212.881,402.613z"/>
					</g>
				</g>
				<g>
					<g>
						<path style="fill:#26120C;" d="M249.516,403.391c0,0-2.893,11.792-5.317,14.227c-2.424,2.435-5.071,3.645-8.432,4.176
							c-4.11,0.65-3.729,4.534-2.82,5.547c1.588,1.769,5.223,0.624,10.236,0.624c4.331,0,9.452-1.734,10.915-4.58
							c1.463-2.846,0.326-10.403-1.23-15.141C251.909,405.32,250.556,403.793,249.516,403.391z"/>
					</g>
				</g>
				<g>
					<g>
						<path style="fill:#26120C;" d="M273.73,401.043c0,0,7.63-1.827,10.088,3.923c3.866,9.044,0.776,14.21-9.531,15.646
							c-10.307,1.436-22.025,3.385-13.165-3.946C269.982,409.335,273.73,401.043,273.73,401.043z"/>
					</g>
				</g>
				<g>
					<g>
						<g>
							<path style="fill:#564C54;" d="M232.663,396.396c0,0-3.078-0.328-3.898,0.05c-1.376,0.633,0.836,3.201,2.246,3.418
								c1.409,0.217,2.781-1.433,2.761-2.507C233.751,396.284,232.663,396.396,232.663,396.396z"/>
						</g>
					</g>
				</g>
				<g>
					<g>
						<path style="fill:#564C54;" d="M234.247,394.026c-0.148-0.092-0.311,0.096-0.199,0.229c0.613,0.731,1.741,1.692,3.267,1.37
							c1.262-0.266,1.74-1.152,1.911-1.925c0.038-0.172-0.195-0.267-0.282-0.114c-0.325,0.571-0.958,1.153-2.187,1.232
							C235.828,394.878,234.875,394.416,234.247,394.026z"/>
					</g>
				</g>
				<g>
					<g>
						<path style="fill:#564C54;" d="M222.311,393.395c-0.129-0.118-0.323,0.037-0.238,0.189c0.468,0.831,1.4,1.983,2.96,1.948
							c1.29-0.029,1.923-0.812,2.233-1.54c0.069-0.162-0.143-0.298-0.256-0.164c-0.424,0.501-1.153,0.958-2.376,0.809
							C223.709,394.523,222.857,393.895,222.311,393.395z"/>
					</g>
				</g>
			</g>
		</g>
	</g>
	<g>
		<g>
			<g>
				<g>
					<g>
						<g>
							<path style="fill:#FFFFFF;" d="M544.422,75.672c0,2.6,0,2.6,0,2.6v69.23c0,1.886-1.529,3.415-3.415,3.415H419.429
								c-1.886,0-3.415-1.529-3.415-3.415V75.67c0-1.886,1.529-3.415,3.415-3.415h121.578
								C542.893,72.256,544.422,73.786,544.422,75.672z"/>
						</g>
					</g>
				</g>
			</g>
			<g>
				<g>
					<g>
						<g>
							<g>
								<g>
									<path style="fill:#7D529A;" d="M469.66,116.365c0,5.833-2.205,11.147-5.828,15.158c-4.142,4.586-10.134,7.468-16.799,7.468
										c-12.498,0-22.628-10.128-22.628-22.626c0-3.099,0.625-6.054,1.753-8.745l20.876,8.745l-1.071-22.599
										c0.35-0.021,0.711-0.027,1.071-0.027C459.529,93.739,469.66,103.869,469.66,116.365z"/>
								</g>
							</g>
						</g>
					</g>
				</g>
				<g>
					<g>
						<g>
							<g>
								<path style="fill:#B98FE5;" d="M443.708,90.032c-6.762,0.313-12.743,3.593-16.679,8.568c-1.267,1.6-2.321,3.376-3.122,5.286
									l20.874,8.744L443.708,90.032z"/>
							</g>
						</g>
					</g>
				</g>
			</g>
			<g>
				<g>
					<g>
						<g>
							<g>
								<g>
									<rect x="521.023" y="100.783" style="fill:#7D529A;" width="3.107" height="3.107"/>
								</g>
							</g>
						</g>
					</g>
					<g>
						<g>
							<g>
								<path style="fill:#E8D2FF;" d="M537.359,102.726h-11.133c-0.019,0-0.034-0.015-0.034-0.034v-0.71
									c0-0.019,0.015-0.034,0.034-0.034h11.133c0.019,0,0.034,0.015,0.034,0.034v0.71
									C537.393,102.711,537.378,102.726,537.359,102.726z"/>
							</g>
						</g>
					</g>
				</g>
				<g>
					<g>
						<g>
							<g>
								<g>
									<rect x="521.023" y="95.245" style="fill:#46235F;" width="3.107" height="3.107"/>
								</g>
							</g>
						</g>
					</g>
					<g>
						<g>
							<g>
								<g>
									<path style="fill:#E8D2FF;" d="M537.359,97.188h-11.133c-0.019,0-0.034-0.015-0.034-0.034v-0.71
										c0-0.019,0.015-0.034,0.034-0.034h11.133c0.019,0,0.034,0.015,0.034,0.034v0.71
										C537.393,97.173,537.378,97.188,537.359,97.188z"/>
								</g>
							</g>
						</g>
					</g>
				</g>
				<g>
					<g>
						<g>
							<g>
								<g>
									<rect x="521.023" y="106.319" style="fill:#7D529A;" width="3.107" height="3.107"/>
								</g>
							</g>
						</g>
					</g>
					<g>
						<g>
							<g>
								<g>
									<path style="fill:#E8D2FF;" d="M537.359,108.261h-11.133c-0.019,0-0.034-0.015-0.034-0.034v-0.71
										c0-0.019,0.015-0.034,0.034-0.034h11.133c0.019,0,0.034,0.015,0.034,0.034v0.71
										C537.393,108.246,537.378,108.261,537.359,108.261z"/>
								</g>
							</g>
						</g>
					</g>
				</g>
				<g>
					<g>
						<g>
							<g>
								<g>
									<path style="fill:#E8D2FF;" d="M537.004,119.164h-15.592c-0.215,0-0.389-0.174-0.389-0.389l0,0
										c0-0.215,0.174-0.389,0.389-0.389h15.592c0.215,0,0.389,0.174,0.389,0.389l0,0
										C537.393,118.99,537.219,119.164,537.004,119.164z"/>
								</g>
							</g>
						</g>
					</g>
					<g>
						<g>
							<g>
								<g>
									<path style="fill:#E8D2FF;" d="M537.004,122.359h-15.592c-0.215,0-0.389-0.174-0.389-0.389l0,0
										c0-0.215,0.174-0.389,0.389-0.389h15.592c0.215,0,0.389,0.174,0.389,0.389l0,0
										C537.393,122.185,537.219,122.359,537.004,122.359z"/>
								</g>
							</g>
						</g>
					</g>
					<g>
						<g>
							<g>
								<g>
									<path style="fill:#E8D2FF;" d="M537.004,125.554h-15.592c-0.215,0-0.389-0.174-0.389-0.389l0,0
										c0-0.215,0.174-0.389,0.389-0.389h15.592c0.215,0,0.389,0.174,0.389,0.389l0,0
										C537.393,125.38,537.219,125.554,537.004,125.554z"/>
								</g>
							</g>
						</g>
					</g>
					<g>
						<g>
							<g>
								<g>
									<path style="fill:#E8D2FF;" d="M537.004,128.749h-15.592c-0.215,0-0.389-0.174-0.389-0.389l0,0
										c0-0.215,0.174-0.389,0.389-0.389h15.592c0.215,0,0.389,0.174,0.389,0.389l0,0
										C537.393,128.575,537.219,128.749,537.004,128.749z"/>
								</g>
							</g>
						</g>
					</g>
					<g>
						<g>
							<g>
								<g>
									<path style="fill:#E8D2FF;" d="M537.004,131.944h-15.592c-0.215,0-0.389-0.174-0.389-0.389l0,0
										c0-0.215,0.174-0.389,0.389-0.389h15.592c0.215,0,0.389,0.174,0.389,0.389l0,0
										C537.393,131.77,537.219,131.944,537.004,131.944z"/>
								</g>
							</g>
						</g>
					</g>
					<g>
						<g>
							<g>
								<g>
									<path style="fill:#E8D2FF;" d="M537.004,135.139h-15.592c-0.215,0-0.389-0.174-0.389-0.389l0,0
										c0-0.215,0.174-0.389,0.389-0.389h15.592c0.215,0,0.389,0.174,0.389,0.389l0,0
										C537.393,134.964,537.219,135.139,537.004,135.139z"/>
								</g>
							</g>
						</g>
					</g>
					<g>
						<g>
							<g>
								<g>
									<path style="fill:#E8D2FF;" d="M537.004,138.333h-15.592c-0.215,0-0.389-0.174-0.389-0.389l0,0
										c0-0.215,0.174-0.389,0.389-0.389h15.592c0.215,0,0.389,0.174,0.389,0.389l0,0
										C537.393,138.159,537.219,138.333,537.004,138.333z"/>
								</g>
							</g>
						</g>
					</g>
				</g>
			</g>
			<g>
				<g>
					<g>
						<g>
							<path style="fill:#26120C;" d="M544.422,75.672c0,2.6,0,2.6,0,2.6v3.394H416.014V75.67c0-1.886,1.529-3.415,3.415-3.415
								h121.578C542.893,72.256,544.422,73.786,544.422,75.672z"/>
						</g>
					</g>
				</g>
			</g>
			<g>
				<g>
					<g>
						<g>
							<g>
								<g>
									<g>
										<g>
											<path style="fill:#E8D2FF;" d="M530.894,76.961c0,0.874-0.708,1.582-1.582,1.582c-0.874,0-1.582-0.708-1.582-1.582
												c0-0.874,0.708-1.582,1.582-1.582C530.186,75.379,530.894,76.087,530.894,76.961z"/>
										</g>
									</g>
								</g>
							</g>
						</g>
					</g>
				</g>
				<g>
					<g>
						<g>
							<g>
								<g>
									<g>
										<g>
											<path style="fill:#B98FE5;" d="M536.022,76.961c0,0.874-0.708,1.582-1.582,1.582c-0.874,0-1.582-0.708-1.582-1.582
												c0-0.874,0.708-1.582,1.582-1.582C535.313,75.379,536.022,76.087,536.022,76.961z"/>
										</g>
									</g>
								</g>
							</g>
						</g>
					</g>
				</g>
				<g>
					<g>
						<g>
							<g>
								<g>
									<g>
										<g>
											<path style="fill:#7D529A;" d="M540.931,76.961c0,0.874-0.708,1.582-1.582,1.582c-0.874,0-1.582-0.708-1.582-1.582
												c0-0.874,0.708-1.582,1.582-1.582C540.223,75.379,540.931,76.087,540.931,76.961z"/>
										</g>
									</g>
								</g>
							</g>
						</g>
					</g>
				</g>
			</g>
			<g>
				<g>
					<g>
						<path style="fill:#46235F;" d="M469.66,116.365c0,5.833-2.205,11.147-5.828,15.158l-16.799-15.158l-1.071-22.599
							c0.35-0.021,0.711-0.027,1.071-0.027C459.529,93.739,469.66,103.869,469.66,116.365z"/>
					</g>
				</g>
			</g>
			<g>
				<g>
					<g>
						<g>
							<g>
								<g>
									<g>
										<rect x="491.69" y="110.649" style="fill:#7D529A;" width="7.204" height="30.868"/>
									</g>
								</g>
							</g>
						</g>
						<g>
							<g>
								<g>
									<g>
										<path style="fill:#46235F;" d="M491.69,133.375c2.553-0.788,4.945-2.202,7.204-3.721v11.862h-7.204V133.375z"/>
									</g>
								</g>
							</g>
						</g>
					</g>
					<g>
						<g>
							<g>
								<g>
									<g>
										<rect x="479.915" y="119.226" style="fill:#7D529A;" width="7.204" height="22.29"/>
									</g>
								</g>
							</g>
						</g>
						<g>
							<g>
								<g>
									<g>
										<path style="fill:#46235F;" d="M485.786,133.898c0.449,0.065,0.893,0.105,1.333,0.122v7.497h-7.204v-7.426
											C481.19,133.67,483.055,133.499,485.786,133.898z"/>
									</g>
								</g>
							</g>
						</g>
					</g>
					<g>
						<g>
							<g>
								<g>
									<g>
										<rect x="503.464" y="101.427" style="fill:#7D529A;" width="7.204" height="40.09"/>
									</g>
								</g>
							</g>
						</g>
						<g>
							<g>
								<g>
									<g>
										<path style="fill:#46235F;" d="M510.669,123.398v18.119h-7.204v-15.042C506.025,124.735,508.411,123.388,510.669,123.398z
											"/>
									</g>
								</g>
							</g>
						</g>
					</g>
				</g>
				<g>
					<g>
						<g>
							<g>
								<path style="fill:#7D529A;" d="M510.377,89.74l-6.501,1.394l1.746,1.712l-9.954,10.147l-3.493-3.426l-12.352,12.592
									c-0.471,0.48-0.464,1.252,0.017,1.723l0,0c0.48,0.471,1.252,0.464,1.723-0.017l10.645-10.853l3.493,3.426l11.66-11.887
									l1.746,1.712L510.377,89.74z"/>
							</g>
						</g>
					</g>
				</g>
			</g>
		</g>
		<g>
			<g>
				<g>
					<g>
						<g>
							
								<rect x="235.755" y="153.808" transform="matrix(1 -0.0014 0.0014 1 -0.2462 0.3759)" style="fill:#7D529A;" width="49.601" height="34.262"/>
						</g>
					</g>
				</g>
				<g>
					<g>
						<g>
							<g>
								<polygon style="fill:#46235F;" points="235.731,153.845 235.735,156.042 260.565,177.986 285.333,155.97 285.33,153.774 
									260.564,175.865 								"/>
							</g>
						</g>
					</g>
				</g>
				<g>
					<g>
						<g>
							<g>
								<g>
									<polygon style="fill:#46235F;" points="265.334,171.533 283.943,188.037 285.38,188.035 285.379,187.161 266.401,170.331 
																			"/>
								</g>
							</g>
						</g>
					</g>
				</g>
				<g>
					<g>
						<g>
							<g>
								<g>
									<polygon style="fill:#46235F;" points="235.778,187.349 235.779,188.106 237.346,188.104 255.907,171.546 254.837,170.348 
																			"/>
								</g>
							</g>
						</g>
					</g>
				</g>
				<g>
					<g>
						<g>
							<g>
								<g>
									<polygon style="fill:#7D529A;" points="285.332,153.772 260.563,175.865 235.731,153.844 									"/>
								</g>
							</g>
						</g>
					</g>
				</g>
			</g>
			<g>
				<g>
					<circle style="fill:#B98FE5;" cx="282.994" cy="155.521" r="10.765"/>
				</g>
				<g>
					<g>
						<path style="fill:#FFFFFF;" d="M280.789,160.635L280.789,160.635c-0.277,0-0.542-0.11-0.738-0.306l-2.638-2.638
							c-0.408-0.408-0.408-1.069,0-1.476c0.408-0.408,1.069-0.408,1.477,0l1.9,1.9l7.403-7.403c0.408-0.408,1.069-0.408,1.477,0
							c0.408,0.408,0.408,1.069,0,1.477l-8.141,8.141C281.331,160.525,281.066,160.635,280.789,160.635z"/>
					</g>
				</g>
			</g>
		</g>
		<g>
			<g>
				<g>
					<g>
						<g>
							<g>
								<path style="fill:#FFFFFF;" d="M568.229,290.688V169.008c0-1.861-1.509-3.37-3.37-3.37h-61.581
									c-1.861,0-3.37,1.509-3.37,3.37v121.679c0,3.764,3.052,6.816,6.816,6.816h54.69
									C565.178,297.504,568.229,294.452,568.229,290.688z"/>
							</g>
						</g>
					</g>
					<g>
						<g>
							<g>
								<g>
									<path style="fill:#E8D2FF;" d="M557.999,258.05h-45.513c-0.829,0-1.501-0.672-1.501-1.501l0,0
										c0-0.829,0.672-1.501,1.501-1.501h45.513c0.829,0,1.501,0.672,1.501,1.501l0,0
										C559.5,257.378,558.828,258.05,557.999,258.05z"/>
								</g>
							</g>
						</g>
						<g>
							<g>
								<g>
									<g>
										<path style="fill:#E8D2FF;" d="M557.999,267.57h-45.513c-0.829,0-1.501-0.672-1.501-1.501l0,0
											c0-0.829,0.672-1.501,1.501-1.501h45.513c0.829,0,1.501,0.672,1.501,1.501l0,0
											C559.5,266.898,558.828,267.57,557.999,267.57z"/>
									</g>
								</g>
							</g>
						</g>
						<g>
							<g>
								<g>
									<g>
										<path style="fill:#E8D2FF;" d="M557.999,277.089h-45.513c-0.829,0-1.501-0.672-1.501-1.501l0,0
											c0-0.829,0.672-1.501,1.501-1.501h45.513c0.829,0,1.501,0.672,1.501,1.501l0,0
											C559.5,276.417,558.828,277.089,557.999,277.089z"/>
									</g>
								</g>
							</g>
						</g>
						<g>
							<g>
								<g>
									<g>
										<path style="fill:#E8D2FF;" d="M557.999,286.609h-45.513c-0.829,0-1.501-0.672-1.501-1.501l0,0
											c0-0.829,0.672-1.501,1.501-1.501h45.513c0.829,0,1.501,0.672,1.501,1.501l0,0
											C559.5,285.937,558.828,286.609,557.999,286.609z"/>
									</g>
								</g>
							</g>
						</g>
					</g>
					<g>
						<g>
							<g>
								<path style="fill:#26120C;" d="M568.229,169.008v9.344h-68.322v-9.344c0-1.861,1.509-3.37,3.37-3.37h61.582
									C566.721,165.638,568.229,167.147,568.229,169.008z"/>
							</g>
						</g>
					</g>
				</g>
				<g>
					<g>
						<g>
							<g>
								<path style="fill:#E8D2FF;" d="M551.685,171.383c0,1.227-0.994,2.221-2.221,2.221c-1.227,0-2.221-0.994-2.221-2.221
									c0-1.227,0.995-2.221,2.221-2.221C550.691,169.161,551.685,170.156,551.685,171.383z"/>
							</g>
						</g>
					</g>
					<g>
						<g>
							<g>
								<path style="fill:#B98FE5;" d="M558.885,171.383c0,1.227-0.995,2.221-2.221,2.221c-1.227,0-2.221-0.994-2.221-2.221
									c0-1.227,0.994-2.221,2.221-2.221C557.891,169.161,558.885,170.156,558.885,171.383z"/>
							</g>
						</g>
					</g>
					<g>
						<g>
							<g>
								<g>
									<path style="fill:#7D529A;" d="M565.778,171.383c0,1.227-0.994,2.221-2.221,2.221c-1.227,0-2.221-0.994-2.221-2.221
										c0-1.227,0.995-2.221,2.221-2.221C564.784,169.161,565.778,170.156,565.778,171.383z"/>
								</g>
							</g>
						</g>
					</g>
				</g>
			</g>
			<g>
				<g>
					<g>
						<g>
							<g>
								<rect x="513.435" y="230.429" style="fill:#7D529A;" width="7.684" height="18.568"/>
							</g>
						</g>
					</g>
				</g>
				<g>
					<g>
						<g>
							<g>
								<g>
									<rect x="524.769" y="217.242" style="fill:#46235F;" width="7.684" height="31.755"/>
								</g>
							</g>
						</g>
					</g>
				</g>
				<g>
					<g>
						<g>
							<g>
								<rect x="537.32" y="207.511" style="fill:#7D529A;" width="7.684" height="41.485"/>
							</g>
						</g>
					</g>
				</g>
				<g>
					<g>
						<g>
							<g>
								<g>
									<rect x="549.615" y="196.092" style="fill:#B98FE5;" width="7.684" height="52.905"/>
								</g>
							</g>
						</g>
					</g>
				</g>
				<g>
					<g>
						<g>
							<g>
								<polygon style="fill:#E8D2FF;" points="543.134,187.957 548.462,189.913 547.848,183.677 								"/>
							</g>
						</g>
					</g>
				</g>
				<g>
					<g>
						<g>
							<g>
								<g>
									<path style="fill:#E8D2FF;" d="M511.322,221.414c-0.234,0-0.453-0.143-0.54-0.375c-0.111-0.298,0.041-0.63,0.338-0.742
										c0.232-0.087,23.356-8.948,34.636-32.763c0.136-0.288,0.479-0.411,0.768-0.274c0.287,0.136,0.41,0.48,0.274,0.768
										c-11.486,24.251-35.038,33.261-35.275,33.35C511.457,221.402,511.389,221.414,511.322,221.414z"/>
								</g>
							</g>
						</g>
					</g>
				</g>
			</g>
		</g>
		<g>
			<g>
				<g>
					<g>
						<g>
							<path style="fill:#7D529A;" d="M249.626,92.883v18.99c0,2.51,2.037,4.547,4.547,4.547h34.48l10.41,3.735
								c1.069,0.384,2.092-0.667,1.682-1.724l-3.938-10.169V92.883c0-2.51-2.036-4.547-4.549-4.547h-38.085
								C251.663,88.336,249.626,90.373,249.626,92.883z"/>
						</g>
					</g>
				</g>
			</g>
			<g>
				<g>
					<g>
						<g>
							<path style="fill:#46235F;" d="M279.581,102.918c0,1.817,1.472,3.289,3.289,3.289c1.816,0,3.289-1.473,3.289-3.289
								c0-1.816-1.473-3.289-3.289-3.289C281.053,99.629,279.581,101.101,279.581,102.918z"/>
						</g>
					</g>
				</g>
				<g>
					<g>
						<g>
							<path style="fill:#46235F;" d="M269.169,102.918c0,1.817,1.473,3.289,3.289,3.289c1.817,0,3.289-1.473,3.289-3.289
								c0-1.816-1.472-3.289-3.289-3.289C270.641,99.629,269.169,101.101,269.169,102.918z"/>
						</g>
					</g>
				</g>
				<g>
					<g>
						<g>
							<path style="fill:#46235F;" d="M258.757,102.918c0,1.817,1.473,3.289,3.289,3.289c1.817,0,3.289-1.473,3.289-3.289
								c0-1.816-1.473-3.289-3.289-3.289C260.229,99.629,258.757,101.101,258.757,102.918z"/>
						</g>
					</g>
				</g>
			</g>
		</g>
		<g>
			<g>
				<g>
					<g>
						<g>
							<g>
								<path style="fill:#B98FE5;" d="M331.465,92.858h-16.416c-1.056,0-1.913-0.856-1.913-1.912V74.53
									c0-1.056,0.856-1.913,1.913-1.913h16.416c1.056,0,1.913,0.856,1.913,1.913v16.416
									C333.378,92.002,332.521,92.858,331.465,92.858z"/>
							</g>
						</g>
					</g>
				</g>
				<g>
					<g>
						<g>
							<g>
								<path style="fill:#FFFFFF;" d="M328.983,78.571c-0.034-0.14-0.066-0.28-0.101-0.419c-0.122-0.492-0.356-0.925-0.688-1.308
									c-0.237-0.274-0.512-0.508-0.823-0.686c-0.428-0.246-0.913-0.141-1.229,0.24c-0.564,0.681-1.126,1.364-1.683,2.051
									c-0.342,0.422-0.286,0.999,0.138,1.374c0.303,0.269,0.624,0.519,0.938,0.776c0.04,0.033,0.087,0.058,0.122,0.08
									c-0.748,2.012-2.017,3.566-3.839,4.686c-0.221-0.184-0.452-0.377-0.683-0.569c-0.119-0.098-0.236-0.198-0.359-0.291
									c-0.366-0.28-0.79-0.308-1.171-0.06c-0.12,0.078-0.22,0.195-0.313,0.308c-0.51,0.615-1.013,1.237-1.523,1.852
									c-0.162,0.195-0.265,0.41-0.301,0.66c0.009,0.091,0.018,0.183,0.027,0.274c0.089,0.154,0.15,0.336,0.272,0.458
									c0.299,0.297,0.627,0.563,1.018,0.74c0.458,0.207,0.937,0.333,1.439,0.289c0.331-0.029,0.662-0.099,0.982-0.188
									c0.824-0.23,1.575-0.623,2.282-1.1c0.7-0.472,1.337-1.021,1.923-1.628c0.79-0.82,1.491-1.713,2.127-2.657
									c0.501-0.744,0.934-1.523,1.215-2.38c0.141-0.431,0.236-0.872,0.266-1.325c0.012-0.182,0.016-0.365,0.024-0.548
									C329.025,78.989,329.004,78.78,328.983,78.571z"/>
							</g>
						</g>
					</g>
				</g>
			</g>
			<g>
				<g>
					<g>
						<g>
							<g>
								<path style="fill:#7D529A;" d="M361.273,92.803h-17.131c-0.943,0-1.708-0.765-1.708-1.708V73.964
									c0-0.943,0.764-1.708,1.708-1.708h17.131c0.943,0,1.708,0.765,1.708,1.708v17.131
									C362.982,92.038,362.217,92.803,361.273,92.803z"/>
							</g>
						</g>
					</g>
				</g>
				<g>
					<g>
						<g>
							<g>
								<path style="fill:#FFFFFF;" d="M359.273,82.14c0,2.562-1.435,3.89-3.152,3.89c-1.006,0-1.743-0.39-2.119-1.168
									c-0.376,0.738-1.019,1.168-2.039,1.168c-1.448,0-2.843-1.275-2.843-3.34c0-2.066,1.354-3.327,2.843-3.327
									c0.711,0,1.262,0.228,1.65,0.658v-0.537h2.575v3.837c0,0.563,0.228,0.737,0.523,0.737c0.376,0,0.684-0.376,0.684-1.877
									c0-2.428-1.811-4.145-4.574-4.145c-2.749,0-4.6,1.931-4.6,4.48c0,2.629,1.811,4.506,4.547,4.506
									c0.886,0,1.798-0.174,2.71-0.59l0.564,1.65c-0.805,0.389-2.079,0.643-3.273,0.643c-4.038,0-6.626-2.695-6.626-6.21
									c0-3.461,2.589-6.184,6.68-6.184C356.685,76.332,359.273,78.921,359.273,82.14z M353.667,82.691
									c0-0.805-0.416-1.221-0.965-1.221c-0.551,0-0.952,0.416-0.952,1.221c0,0.818,0.402,1.233,0.952,1.233
									C353.251,83.924,353.667,83.509,353.667,82.691z"/>
							</g>
						</g>
					</g>
				</g>
			</g>
			<g>
				<g>
					<g>
						<g>
							<g>
								<g>
									<g>
										<path style="fill:#46235F;" d="M388.968,92.803h-17.131c-0.943,0-1.708-0.765-1.708-1.708V73.964
											c0-0.943,0.765-1.708,1.708-1.708h17.131c0.943,0,1.708,0.765,1.708,1.708v17.131
											C390.676,92.038,389.912,92.803,388.968,92.803z"/>
									</g>
								</g>
							</g>
						</g>
					</g>
				</g>
				<g>
					<g>
						<g>
							<g>
								<path style="fill:#FFFFFF;" d="M381.474,87.265l-0.012,1.463l-1.858-0.015l0.011-1.397c-1.317-0.09-2.592-0.456-3.379-0.95
									l1.02-2.258c0.866,0.521,2.023,0.86,3.037,0.868c0.883,0.007,1.201-0.175,1.203-0.491c0.01-1.16-5.098-0.266-5.07-3.705
									c0.012-1.489,1.103-2.732,3.267-3.018l0.012-1.436l1.858,0.015l-0.012,1.41c0.974,0.1,1.921,0.358,2.669,0.786l-0.954,2.246
									c-0.906-0.469-1.76-0.7-2.564-0.706c-0.909-0.007-1.201,0.254-1.204,0.57c-0.009,1.107,5.098,0.226,5.071,3.626
									C384.557,85.696,383.52,86.926,381.474,87.265z"/>
							</g>
						</g>
					</g>
				</g>
			</g>
		</g>
	</g>
	<g>
		<g>
			<g>
				<g>
					<g>
						<path style="fill:#DBBF9F;" d="M192.097,437.73c0,2.887-28.49,5.227-63.634,5.227s-63.634-2.34-63.634-5.227
							c0-2.887,28.49-5.227,63.634-5.227S192.097,434.843,192.097,437.73z"/>
					</g>
				</g>
			</g>
			<g>
				<g>
					<g>
						<g>
							<g>
								<path style="fill:#39252B;" d="M166.934,393.157H87.617c-0.505,0-0.915-0.41-0.915-0.915v-4.597
									c0-0.505,0.41-0.915,0.915-0.915h79.317c0.505,0,0.915,0.41,0.915,0.915v4.597
									C167.849,392.747,167.439,393.157,166.934,393.157z"/>
							</g>
						</g>
					</g>
				</g>
				<g>
					<g>
						<g>
							<g>
								<g>
									<path style="fill:#7F5C55;" d="M90.268,315.512h74.176c1.233,0,2.233,1,2.233,2.233v9.113c0,1.233-1,2.233-2.233,2.233
										H90.268c-1.233,0-2.233-1-2.233-2.233v-9.113C88.035,316.512,89.035,315.512,90.268,315.512z"/>
								</g>
							</g>
						</g>
					</g>
				</g>
				<g>
					<g>
						<g>
							<g>
								<g>
									<g>
										<g>
											<g>
												<g>
													<g>
														<path style="fill:#396C61;" d="M126.617,280.195h-7.209c0,0-0.352-0.72-0.972-2.031
															c-0.296-0.62-0.65-1.37-1.059-2.244c-1.026-2.18-2.373-5.101-3.926-8.546c-0.013-0.028-0.028-0.059-0.041-0.09
															c-9.721-21.614-27.16-63.575-20.03-71.918c8.101-9.477,17.768,4.72,24.797,31.592c0.483,1.846,0.951,3.748,1.409,5.71
															c2.52,10.834,4.62,23.383,6.065,37.043c0.218,2.047,0.419,4.116,0.607,6.209
															C126.385,277.333,126.504,278.76,126.617,280.195z"/>
													</g>
												</g>
											</g>
										</g>
									</g>
								</g>
							</g>
							<g>
								<g>
									<path style="fill:#1E453E;" d="M126.257,275.92l-2.174,4.275h-4.676c0,0-0.351-0.72-0.972-2.03l-0.259-51.208
										C121.723,240.522,124.599,257.314,126.257,275.92z"/>
								</g>
							</g>
							<g>
								<g>
									<g>
										<g>
											<g>
												<g>
													<g>
														<g>
															<path style="fill:#1E453E;" d="M124.346,280.195h-1.178l-22.706-74.396c-0.09-0.298,0.077-0.612,0.374-0.704
																c0.298-0.09,0.614,0.077,0.704,0.375L124.346,280.195z"/>
														</g>
													</g>
												</g>
											</g>
										</g>
									</g>
								</g>
							</g>
						</g>
						<g>
							<g>
								<g>
									<g>
										<g>
											<g>
												<g>
													<g>
														<path style="fill:#396C61;" d="M145.046,265.093c-0.535,1.203-1.051,2.352-1.543,3.442
															c-1.332,2.941-2.496,5.453-3.401,7.384c-1.27,2.712-2.029,4.276-2.029,4.276h-7.209
															c0.111-1.435,0.229-2.862,0.357-4.276c0.177-1.992,0.37-3.967,0.576-5.916c1.404-13.341,3.427-25.628,5.859-36.297
															c0.375-1.653,0.761-3.265,1.157-4.836c7.063-28.103,16.994-43.203,25.283-33.505
															C170.994,203.433,154.908,242.957,145.046,265.093z"/>
													</g>
												</g>
											</g>
										</g>
									</g>
								</g>
							</g>
							<g>
								<g>
									<path style="fill:#1E453E;" d="M131.221,275.92l2.174,4.275h4.676c0,0,0.351-0.72,0.972-2.03l0.259-51.208
										C135.756,240.522,132.879,257.314,131.221,275.92z"/>
								</g>
							</g>
							<g>
								<g>
									<g>
										<g>
											<g>
												<g>
													<g>
														<g>
															<path style="fill:#1E453E;" d="M133.131,280.195h1.178l22.706-74.396c0.09-0.298-0.077-0.612-0.373-0.704
																c-0.298-0.09-0.614,0.077-0.704,0.375L133.131,280.195z"/>
														</g>
													</g>
												</g>
											</g>
										</g>
									</g>
								</g>
							</g>
						</g>
						<g>
							<g>
								<g>
									<g>
										<g>
											<g>
												<g>
													<g>
														<path style="fill:#396C61;" d="M137.656,233.706c-1.01,14.225-2.409,27.533-3.412,36.233
															c-0.73,6.358-1.249,10.256-1.249,10.256h-6.381c-0.746-3.569-1.435-7.106-2.07-10.603
															c-2.363-12.986-3.988-25.435-4.959-36.924c-3.733-44.036,2.116-73.982,12.847-66.007
															C140.13,172.383,139.693,204.922,137.656,233.706z"/>
													</g>
												</g>
											</g>
										</g>
									</g>
								</g>
							</g>
							<g>
								<g>
									<path style="fill:#1E453E;" d="M143.503,268.535c-1.332,2.941-2.496,5.453-3.401,7.384
										c-1.27,2.712-2.029,4.276-2.029,4.276h-18.665c0,0-0.352-0.72-0.972-2.031c-0.296-0.62-0.65-1.37-1.059-2.244
										c-1.026-2.18-2.373-5.101-3.926-8.546c2.291,0.663,6.268,1.661,11.094,2.219c0.363,0.041,0.733,0.08,1.106,0.118
										c1.944,0.19,4.011,0.303,6.147,0.293c0.807-0.003,1.622-0.023,2.447-0.064C137.279,269.787,140.41,269.361,143.503,268.535
										z"/>
								</g>
							</g>
							<g>
								<g>
									<g>
										<g>
											<g>
												<g>
													<g>
														<g>
															<path style="fill:#1E453E;" d="M129.255,180.41l-0.762,99.785h-1.126l0.762-99.792
																c0.004-0.312,0.259-0.554,0.569-0.559C129.008,179.845,129.259,180.1,129.255,180.41z"/>
														</g>
													</g>
												</g>
											</g>
										</g>
									</g>
								</g>
							</g>
						</g>
					</g>
					<g>
						<g>
							<g>
								<path style="fill:#E05042;" d="M161.314,279.427l-0.934,2.476l-0.589,1.569l-1.692,4.493l-0.592,1.569l-1.739,4.614
									l-0.589,1.566l-7.456,19.798H106.99l-7.456-19.798l-0.589-1.566l-1.739-4.614l-0.592-1.569l-1.692-4.493l-0.589-1.569
									l-0.934-2.476c-0.64-1.697,0.614-3.508,2.427-3.508h63.06C160.698,275.919,161.951,277.73,161.314,279.427z"/>
							</g>
						</g>
					</g>
					<g>
						<g>
							<g>
								<g>
									<g>
										<g>
											<g>
												<polygon style="fill:#B11722;" points="160.38,281.903 159.791,283.472 94.923,283.472 94.333,281.903 												"/>
											</g>
										</g>
									</g>
								</g>
							</g>
						</g>
						<g>
							<g>
								<g>
									<g>
										<g>
											<g>
												<polygon style="fill:#B11722;" points="158.098,287.965 157.507,289.534 97.207,289.534 96.615,287.965 												"/>
											</g>
										</g>
									</g>
								</g>
							</g>
						</g>
						<g>
							<g>
								<g>
									<g>
										<g>
											<g>
												<polygon style="fill:#B11722;" points="155.768,294.148 155.179,295.714 99.534,295.714 98.945,294.148 												"/>
											</g>
										</g>
									</g>
								</g>
							</g>
						</g>
					</g>
				</g>
				<g>
					<g>
						<g>
							<polygon style="fill:#644946;" points="116.445,329.091 114.186,336.374 82.742,437.73 76.596,437.73 96.537,338.443 
								98.416,329.091 							"/>
						</g>
					</g>
				</g>
				<g>
					<g>
						<g>
							<g>
								<polygon style="fill:#39252B;" points="98.416,329.091 116.445,329.091 114.186,336.374 96.537,338.443 								"/>
							</g>
						</g>
					</g>
				</g>
				<g>
					<g>
						<g>
							<polygon style="fill:#644946;" points="178.301,437.73 172.154,437.73 139.78,333.374 138.451,329.091 156.478,329.091 
								156.933,331.362 156.935,331.362 							"/>
						</g>
					</g>
				</g>
				<g>
					<g>
						<g>
							<g>
								<g>
									<polygon style="fill:#39252B;" points="156.933,331.362 139.78,333.374 138.451,329.091 156.478,329.091 									"/>
								</g>
							</g>
						</g>
					</g>
				</g>
				<g>
					<g>
						<g>
							<g>
								<g>
									<path style="fill:#7F5C55;" d="M165.369,379.182H89.181c-1.369,0-2.479-1.11-2.479-2.479v-1.469
										c0-1.369,1.11-2.479,2.479-2.479h76.189c1.369,0,2.479,1.11,2.479,2.479v1.469
										C167.849,378.072,166.739,379.182,165.369,379.182z"/>
								</g>
							</g>
						</g>
					</g>
				</g>
			</g>
		</g>
		<g>
			<g>
				<g>
					<g>
						<g>
							<g>
								<g>
									<g>
										
											<ellipse transform="matrix(0.7071 -0.7071 0.7071 0.7071 99.9807 464.1037)" style="fill:#EAD5B9;" cx="610.213" cy="111.364" rx="28.384" ry="28.384"/>
									</g>
								</g>
							</g>
						</g>
					</g>
				</g>
				<g>
					<g>
						<g>
							<g>
								<g>
									<g>
										
											<ellipse transform="matrix(0.7071 -0.7071 0.7071 0.7071 102.5935 463.0214)" style="fill:#E05042;" cx="610.213" cy="107.669" rx="28.384" ry="28.384"/>
									</g>
								</g>
							</g>
						</g>
					</g>
				</g>
				<g>
					<g>
						<g>
							<g>
								<g>
									<g>
										<g>
											
												<ellipse transform="matrix(0.9873 -0.159 0.159 0.9873 -9.357 98.4189)" style="fill:#FFFFFF;" cx="610.213" cy="107.669" rx="23.075" ry="23.075"/>
										</g>
									</g>
								</g>
							</g>
						</g>
					</g>
				</g>
				<g>
					<g>
						<g>
							<g>
								<g>
									<g>
										<path style="fill:#EAD5B9;" d="M633.289,107.67c0,0.615-0.025,1.223-0.072,1.823
											c-0.933-11.875-10.896-21.254-23.004-21.254c-12.11,0-22.071,9.378-23.004,21.254c-0.047-0.6-0.071-1.209-0.071-1.823
											c0-12.725,10.35-23.075,23.075-23.075C622.936,84.594,633.289,94.945,633.289,107.67z"/>
									</g>
								</g>
							</g>
						</g>
					</g>
				</g>
			</g>
			<g>
				<g>
					<g>
						<g>
							<g>
								<path style="fill:#26120C;" d="M610.214,110.07c-0.178,0-0.352-0.083-0.464-0.233l-11.32-15.24
									c-0.19-0.256-0.137-0.618,0.119-0.808c0.255-0.19,0.617-0.137,0.808,0.119l11.046,14.871l12.553-5.51
									c0.291-0.128,0.633,0.004,0.761,0.297c0.128,0.292-0.005,0.633-0.297,0.761l-12.974,5.695
									C610.37,110.055,610.292,110.07,610.214,110.07z"/>
							</g>
						</g>
					</g>
				</g>
			</g>
		</g>
		<g>
			<g>
				<g>
					<g>
						<g>
							<g>
								<path style="fill:#DBBF9F;" d="M689.932,439.217c0,3.649-24.569,6.607-54.876,6.607c-30.307,0-54.875-2.958-54.875-6.607
									c0-3.649,24.569-6.607,54.875-6.607C665.364,432.609,689.932,435.568,689.932,439.217z"/>
							</g>
						</g>
					</g>
				</g>
				<g>
					<g>
						<g>
							<g>
								<polygon style="fill:#644946;" points="686.235,251.487 673.426,438.803 596.687,438.803 583.878,251.487 								"/>
							</g>
						</g>
					</g>
				</g>
				<g>
					<g>
						<g>
							<g>
								<polygon style="fill:#39252B;" points="685.382,263.965 585.126,269.742 584.407,259.232 685.706,259.232 								"/>
							</g>
						</g>
					</g>
				</g>
				<g>
					<g>
						<g>
							<g>
								<path style="fill:#7F5C55;" d="M690.054,259.232H580.06c-1.282,0-2.321-1.039-2.321-2.321v-6.977
									c0-1.282,1.039-2.321,2.321-2.321h109.994c1.282,0,2.321,1.039,2.321,2.321v6.977
									C692.375,258.193,691.335,259.232,690.054,259.232z"/>
							</g>
						</g>
					</g>
				</g>
				<g>
					<g>
						<g>
							<polygon style="fill:#39252B;" points="674.769,280.572 672.253,324.914 597.86,324.914 595.344,280.572 							"/>
						</g>
					</g>
				</g>
				<g>
					<g>
						<g>
							<g>
								<path style="fill:#644946;" d="M638.77,304.573c0,2.051-1.663,3.713-3.713,3.713c-2.05,0-3.713-1.662-3.713-3.713
									c0-2.051,1.662-3.713,3.713-3.713C637.107,300.86,638.77,302.522,638.77,304.573z"/>
							</g>
						</g>
					</g>
				</g>
				<g>
					<g>
						<g>
							<polygon style="fill:#39252B;" points="671.268,335.301 668.973,375.734 601.14,375.734 598.845,335.301 							"/>
						</g>
					</g>
				</g>
				<g>
					<g>
						<g>
							<g>
								<path style="fill:#644946;" d="M638.77,356.987c0,2.05-1.663,3.713-3.713,3.713c-2.05,0-3.713-1.663-3.713-3.713
									c0-2.051,1.662-3.713,3.713-3.713C637.107,353.273,638.77,354.936,638.77,356.987z"/>
							</g>
						</g>
					</g>
				</g>
				<g>
					<g>
						<g>
							<polygon style="fill:#39252B;" points="668.246,385.946 666.143,423.005 603.971,423.005 601.868,385.946 							"/>
						</g>
					</g>
				</g>
				<g>
					<g>
						<g>
							<g>
								<path style="fill:#644946;" d="M638.77,404.476c0,2.051-1.663,3.713-3.713,3.713c-2.05,0-3.713-1.662-3.713-3.713
									c0-2.05,1.662-3.713,3.713-3.713C637.107,400.763,638.77,402.425,638.77,404.476z"/>
							</g>
						</g>
					</g>
				</g>
			</g>
			<g>
				<g>
					<g>
						<path style="fill:#396C61;" d="M667.879,181.68c-1.133,6.201-2.429,11.005-2.429,11.005s-3.112,6.943-5.887,8.991
							c-1.937,1.43-3.71,0.47-4.143-6.914c-0.072-1.2-0.106-2.568-0.101-4.123c0,0-0.438-3.542-0.646-8.408
							c-0.458-10.589,0.163-27.449,8.717-27.756C671.473,154.186,669.954,170.292,667.879,181.68z"/>
					</g>
					<g>
						<path style="fill:#1E453E;" d="M654.673,182.231c1.244,2.488,3.307,5.214,6.295,4.982c3.102-0.242,5.464-3.122,6.911-5.533
							c-1.133,6.201-2.429,11.005-2.429,11.005s-3.112,6.943-5.887,8.991c-1.702-1.074-3.097-3.569-4.143-6.914L654.673,182.231z"/>
					</g>
					<g>
						<path style="fill:#1E453E;" d="M659.948,200.006c-0.259,0-0.476-0.201-0.493-0.462c-0.477-7.356,1.994-31.213,2.099-32.225
							c0.028-0.271,0.267-0.468,0.543-0.441c0.272,0.028,0.469,0.271,0.441,0.543c-0.026,0.247-2.567,24.786-2.095,32.059
							c0.018,0.273-0.189,0.508-0.462,0.526C659.969,200.006,659.958,200.006,659.948,200.006z"/>
					</g>
				</g>
				<g>
					<g>
						<path style="fill:#396C61;" d="M661.97,214.266h-10.332c0,0-9.409-0.7-6.471-8.645c2.941-7.945-0.839-9.835-5.378-15.064
							c-4.536-5.232-11.341-16.313-3.779-19.719c7.562-3.406,15.123,4.806,18.161,13.587c0.938,2.709,1.247,5.241,1.583,7.688
							c0.178,1.316,0.364,2.607,0.66,3.891c0.522,2.263,1.385,4.497,3.146,6.782c0.047,0.059,0.094,0.119,0.141,0.181
							C664.49,209.02,661.97,214.266,661.97,214.266z"/>
					</g>
					<g>
						<path style="fill:#1E453E;" d="M661.97,214.266h-9.021c-1.685-8.014,1.229-14.587,3.465-18.262
							c0.522,2.263,1.385,4.497,3.146,6.782c0.047,0.059,0.094,0.119,0.141,0.181C664.49,209.02,661.97,214.266,661.97,214.266z"/>
					</g>
					<g>
						<path style="fill:#1E453E;" d="M654.561,214.055c-0.267,0-0.487-0.213-0.494-0.481c-0.493-17.768-12.377-33.162-12.497-33.315
							c-0.168-0.215-0.13-0.526,0.085-0.695c0.215-0.168,0.526-0.13,0.695,0.085c0.122,0.156,12.205,15.797,12.707,33.897
							c0.008,0.273-0.208,0.501-0.481,0.508C654.57,214.055,654.565,214.055,654.561,214.055z"/>
					</g>
				</g>
				<g>
					<g>
						<path style="fill:#396C61;" d="M685.914,190.557c-7.814,6.364-11.846,7.047-10.839,13.134c0.334,2.009,0.611,3.96,0.609,5.697
							c-0.007,3.517-1.177,6.149-5.397,6.567c-6.3,0.626-11.593-1.687-11.593-1.687s-1.878-4.49-2.164-9.788
							c-0.267-4.927,0.839-10.555,6.105-13.924c10.931-6.993,8.915-34.617,23.281-32.023
							C700.28,161.132,693.727,184.193,685.914,190.557z"/>
					</g>
					<g>
						<path style="fill:#1E453E;" d="M675.683,209.388c-0.007,3.517-1.177,6.149-5.397,6.567c-6.3,0.626-11.593-1.687-11.593-1.687
							s-1.878-4.49-2.164-9.788C658.964,205.999,666.536,210.133,675.683,209.388z"/>
					</g>
					<g>
						<path style="fill:#1E453E;" d="M664.81,213.131c-0.247,0-0.46-0.184-0.49-0.436c-0.017-0.139-1.564-13.957,7.464-22.349
							c8.733-8.118,12.174-21.427,12.207-21.561c0.067-0.265,0.336-0.425,0.601-0.359c0.265,0.067,0.425,0.336,0.359,0.601
							c-0.034,0.136-3.542,13.722-12.493,22.043c-8.663,8.053-7.171,21.373-7.155,21.506c0.033,0.271-0.161,0.518-0.432,0.55
							C664.85,213.129,664.83,213.131,664.81,213.131z"/>
					</g>
				</g>
				<g>
					<g>
						<g>
							<g>
								<polygon style="fill:#E05042;" points="674.702,247.783 677.228,226.234 677.345,225.23 677.692,222.275 677.809,221.27 
									678.147,218.391 678.265,217.386 678.975,211.33 642.968,211.33 643.678,217.386 643.796,218.391 644.134,221.27 
									644.251,222.275 644.598,225.23 644.715,226.234 647.242,247.783 								"/>
							</g>
						</g>
					</g>
					<g>
						<g>
							<g>
								<g>
									<g>
										<polygon style="fill:#B11722;" points="678.265,217.386 678.147,218.391 643.796,218.391 643.678,217.386 										"/>
									</g>
								</g>
							</g>
						</g>
						<g>
							<g>
								<g>
									<g>
										<polygon style="fill:#B11722;" points="677.809,221.27 677.692,222.275 644.251,222.275 644.134,221.27 										"/>
									</g>
								</g>
							</g>
						</g>
						<g>
							<g>
								<g>
									<g>
										<polygon style="fill:#B11722;" points="677.345,225.23 677.228,226.234 644.715,226.234 644.598,225.23 										"/>
									</g>
								</g>
							</g>
						</g>
					</g>
				</g>
			</g>
			<g>
				<g>
					<g>
						<polygon style="fill:#396C61;" points="621.457,213.309 621.195,216.331 621.059,217.889 620.928,219.355 620.747,221.422 
							620.661,222.398 620.285,226.73 619.87,231.441 619.852,231.663 619.592,234.65 619.466,236.117 619.383,237.062 
							618.965,241.873 618.445,247.842 601.856,247.842 601.735,246.476 601.233,240.671 600.926,237.17 600.835,236.117 
							600.706,234.65 600.427,231.441 600.419,231.345 600.112,227.857 599.64,222.398 599.605,222.005 599.373,219.355 
							599.303,218.531 599.247,217.889 598.844,213.309 						"/>
					</g>
				</g>
				<g>
					<polygon style="fill:#1E453E;" points="621.059,217.889 620.928,219.355 599.373,219.355 599.303,218.531 599.247,217.889 
											"/>
				</g>
				<g>
					<polygon style="fill:#1E453E;" points="619.592,234.65 619.466,236.117 600.835,236.117 600.706,234.65 					"/>
				</g>
				<g>
					<g>
						<polygon style="fill:#FFFFFF;" points="620.661,222.398 620.286,226.73 619.87,231.441 600.427,231.441 600.418,231.346 
							600.111,227.856 599.641,222.398 						"/>
					</g>
				</g>
				<g>
					<g>
						<g>
							<rect x="597.685" y="208.895" style="fill:#398889;" width="24.933" height="4.415"/>
						</g>
					</g>
					<g>
						<g>
							<path style="fill:#396C61;" d="M620.739,208.895h-21.176v-2.272c0-0.816,0.662-1.478,1.478-1.478h18.22
								c0.816,0,1.478,0.662,1.478,1.478V208.895z"/>
						</g>
					</g>
				</g>
			</g>
		</g>
		<g>
			<g>
				<g>
					<g>
						<g>
							<g>
								<g>
									<g>
										<polygon style="fill:#7F5C55;" points="128.295,128.574 91.369,128.574 85.964,91.649 122.89,91.649 										"/>
									</g>
								</g>
							</g>
						</g>
					</g>
				</g>
				<g>
					<g>
						<g>
							<g>
								<polygon style="fill:#39252B;" points="85.964,91.649 80.848,128.574 91.369,128.574 								"/>
							</g>
						</g>
					</g>
				</g>
				<g>
					<g>
						<g>
							<g>
								<g>
									<g>
										<polygon style="fill:#DDDAC7;" points="93.615,125.943 88.98,94.28 120.643,94.28 125.278,125.943 										"/>
									</g>
								</g>
							</g>
						</g>
					</g>
				</g>
				<g>
					<g>
						<g>
							<g>
								<g>
									<g>
										<polygon style="fill:#FFFFFF;" points="94.064,125.417 89.583,94.806 120.194,94.806 124.675,125.417 										"/>
									</g>
								</g>
							</g>
						</g>
					</g>
				</g>
				<g>
					<g>
						<g>
							<g>
								<g>
									<g>
										<g>
											<polygon style="fill:#DBBF9F;" points="117.443,98.553 120.827,121.67 96.796,121.67 93.412,98.553 											"/>
										</g>
									</g>
								</g>
							</g>
						</g>
					</g>
				</g>
				<g>
					
						<ellipse transform="matrix(0.9239 -0.3827 0.3827 0.9239 -33.6629 48.9218)" style="fill:#EAD5B9;" cx="106.142" cy="109.078" rx="7.768" ry="7.768"/>
				</g>
				<g>
					<g>
						<g>
							<path style="fill:#1E453E;" d="M105.399,109.688c0,0,4.873-5.709,12.894-5.324l2.534,17.306L105.399,109.688z"/>
						</g>
					</g>
				</g>
				<g>
					<g>
						<g>
							<path style="fill:#396C61;" d="M94.524,106.153c0,0,6.881-1.399,14.028,3.958c7.147,5.357,12.274,11.559,12.274,11.559
								H96.796L94.524,106.153z"/>
						</g>
					</g>
				</g>
			</g>
			<g>
				<g>
					<g>
						<g>
							<g>
								<polygon style="fill:#DBBF9F;" points="221.314,143.966 67.179,143.966 65.155,136.933 223.621,136.933 								"/>
							</g>
						</g>
					</g>
					<g>
						<g>
							<g>
								<g>
									<rect x="65.121" y="128.574" style="fill:#644946;" width="158.642" height="8.359"/>
								</g>
							</g>
						</g>
						<g>
							<g>
								<g>
									<g>
										<polygon style="fill:#39252B;" points="73.029,136.933 76.415,144.03 84.396,144.03 86.667,136.933 										"/>
									</g>
								</g>
							</g>
							<g>
								<g>
									<g>
										<polygon style="fill:#39252B;" points="213.387,136.933 210,144.03 202.02,144.03 199.748,136.933 										"/>
									</g>
								</g>
							</g>
						</g>
					</g>
				</g>
			</g>
			<g>
				<g>
					<g>
						<g>
							<g>
								<g>
									<g>
										<g>
											<g>
												<path style="fill:#E05042;" d="M205.367,119.594l1.174-0.002l-0.002-1.753l-44.418,0.057
													c-1.472,0.002-2.807,0.599-3.769,1.567c-0.962,0.965-1.559,2.298-1.557,3.773c0.004,2.947,2.394,5.33,5.34,5.326
													l44.418-0.058l-0.002-1.518l-1.174,0.002L205.367,119.594z"/>
											</g>
										</g>
									</g>
								</g>
							</g>
						</g>
					</g>
					<g>
						<g>
							<g>
								<g>
									<g>
										<path style="fill:#FFFFFF;" d="M205.671,119.594l0.01,7.393l-40.758,0.053c-1.99,0.003-3.603-1.651-3.605-3.69
											c-0.001-1.023,0.401-1.945,1.051-2.617c0.653-0.669,1.55-1.084,2.545-1.085L205.671,119.594z"/>
									</g>
								</g>
							</g>
						</g>
					</g>
					<g>
						<g>
							<g>
								<g>
									<g>
										<path style="fill:#DBBF9F;" d="M205.673,121.465l0.002,1.131l-39.704,0.052c-0.31,0-0.564-0.253-0.564-0.563v-0.003
											c0-0.31,0.253-0.564,0.563-0.564L205.673,121.465z"/>
									</g>
								</g>
							</g>
						</g>
					</g>
					<g>
						<g>
							<g>
								<g>
									<g>
										<path style="fill:#DBBF9F;" d="M205.677,124.248l0.001,1.131l-39.704,0.051c-0.31,0.001-0.564-0.253-0.564-0.563v-0.003
											c0-0.31,0.253-0.564,0.563-0.564L205.677,124.248z"/>
									</g>
								</g>
							</g>
						</g>
					</g>
				</g>
				<g>
					<g>
						<g>
							<g>
								<g>
									<g>
										<g>
											<path style="fill:#F4AD4B;" d="M201.397,108.933l1.174-0.002l-0.002-1.753l-44.418,0.058
												c-1.472,0.002-2.807,0.599-3.769,1.567c-0.962,0.965-1.559,2.298-1.557,3.773c0.004,2.946,2.393,5.33,5.34,5.326
												l44.418-0.058l-0.002-1.519l-1.174,0.002L201.397,108.933z"/>
										</g>
									</g>
								</g>
							</g>
						</g>
					</g>
					<g>
						<g>
							<g>
								<g>
									<g>
										<path style="fill:#FFFFFF;" d="M201.701,108.933l0.01,7.393l-40.758,0.053c-1.99,0.003-3.603-1.651-3.605-3.69
											c-0.001-1.023,0.401-1.945,1.051-2.618c0.653-0.669,1.55-1.084,2.545-1.085L201.701,108.933z"/>
									</g>
								</g>
							</g>
						</g>
					</g>
					<g>
						<g>
							<g>
								<g>
									<g>
										<path style="fill:#DBBF9F;" d="M201.704,110.804l0.001,1.131l-39.704,0.051c-0.31,0-0.564-0.253-0.564-0.563v-0.003
											c0-0.31,0.253-0.564,0.563-0.564L201.704,110.804z"/>
									</g>
								</g>
							</g>
						</g>
					</g>
					<g>
						<g>
							<g>
								<g>
									<g>
										<path style="fill:#DBBF9F;" d="M201.708,113.587l0.001,1.131l-39.704,0.051c-0.31,0-0.564-0.253-0.564-0.563v-0.003
											c0-0.31,0.253-0.564,0.563-0.564L201.708,113.587z"/>
									</g>
								</g>
							</g>
						</g>
					</g>
				</g>
				<g>
					<g>
						<g>
							<g>
								<g>
									<g>
										<g>
											<path style="fill:#396C61;" d="M209.141,98.257l1.174-0.001l-0.002-1.753l-44.418,0.058
												c-1.472,0.002-2.807,0.598-3.769,1.567c-0.962,0.965-1.559,2.298-1.557,3.773c0.004,2.947,2.393,5.33,5.34,5.326
												l44.418-0.058l-0.002-1.519l-1.174,0.002L209.141,98.257z"/>
										</g>
									</g>
								</g>
							</g>
						</g>
					</g>
					<g>
						<g>
							<g>
								<g>
									<g>
										<path style="fill:#FFFFFF;" d="M209.445,98.256l0.01,7.393l-40.758,0.053c-1.99,0.003-3.603-1.651-3.605-3.69
											c-0.001-1.023,0.401-1.945,1.051-2.618c0.653-0.669,1.55-1.084,2.545-1.085L209.445,98.256z"/>
									</g>
								</g>
							</g>
						</g>
					</g>
					<g>
						<g>
							<g>
								<g>
									<g>
										<path style="fill:#DBBF9F;" d="M209.448,100.128l0.001,1.131l-39.704,0.051c-0.31,0.001-0.564-0.253-0.564-0.563v-0.004
											c0-0.31,0.253-0.564,0.563-0.564L209.448,100.128z"/>
									</g>
								</g>
							</g>
						</g>
					</g>
					<g>
						<g>
							<g>
								<g>
									<g>
										<path style="fill:#DBBF9F;" d="M209.451,102.911l0.001,1.131l-39.704,0.051c-0.31,0-0.564-0.253-0.564-0.563v-0.003
											c0-0.31,0.253-0.564,0.563-0.564L209.451,102.911z"/>
									</g>
								</g>
							</g>
						</g>
					</g>
				</g>
			</g>
		</g>
	</g>
</g>
</svg>
