<svg xmlns="http://www.w3.org/2000/svg" version="1.1" xmlns:xlink="http://www.w3.org/1999/xlink" xmlns:svgjs="http://svgjs.dev/svgjs" width="2000" height="2250" viewBox="0 0 2000 2250"><g transform="matrix(1,0,0,1,0,0)"><svg viewBox="0 0 320 360" data-background-color="#ffffff" preserveAspectRatio="xMidYMid meet" height="2250" width="2000" xmlns="http://www.w3.org/2000/svg" xmlns:xlink="http://www.w3.org/1999/xlink"><g id="tight-bounds" transform="matrix(1,0,0,1,0,0)"><svg viewBox="0 0 320 360" height="360" width="320"><g><svg></svg></g><g><svg viewBox="0 0 320 360" height="360" width="320"><g><path xmlns="http://www.w3.org/2000/svg" d="M159.823 340.15v0c-7.794 0-14.524-4.96-16.65-12.399-1.063-3.897-5.314-6.022-8.856-4.96-1.417 0.354-2.834 1.417-3.897 2.834-5.668 7.794-16.296 9.919-24.444 4.251-4.96-3.188-7.794-8.856-7.439-14.878 0-3.897-3.188-7.439-7.085-7.44-1.771 0-3.188 0.354-4.605 1.417-7.794 5.668-18.775 4.251-24.444-3.542-3.543-4.605-4.605-10.628-2.479-16.296 1.417-3.897-0.709-7.794-4.606-9.21-1.417-0.354-3.188-0.354-4.605 0-9.211 3.188-19.13-1.771-22.318-10.982-1.771-5.314-1.063-11.69 2.48-16.296 2.48-3.188 1.771-7.794-1.417-9.919-1.417-1.063-2.834-1.417-4.605-1.417-9.565 0.354-17.713-7.439-17.713-17.004 0-6.022 2.834-11.336 7.439-14.879 3.188-2.126 3.897-6.731 1.771-9.919-1.063-1.417-2.126-2.126-3.896-2.834-9.211-2.834-14.524-12.753-11.691-21.963 1.771-5.668 6.022-9.919 11.691-11.691 3.897-1.063 6.022-5.314 4.959-8.856-0.354-1.417-1.417-2.834-2.834-3.897-7.794-5.668-9.919-16.296-4.251-24.443 3.188-4.96 8.856-7.794 14.879-7.44 3.897 0 7.439-3.188 7.439-7.085 0-1.771-0.354-3.188-1.417-4.605-5.668-7.794-4.251-18.775 3.543-24.443 4.605-3.543 10.628-4.605 16.295-2.48 3.897 1.417 7.794-0.709 9.211-4.605 0.354-1.417 0.354-3.188 0-4.606-3.188-9.211 1.771-19.13 10.982-22.318 5.314-1.771 11.69-1.063 16.295 2.48 3.188 2.48 7.794 1.771 9.919-1.417 1.063-1.417 1.417-2.834 1.417-4.605-0.354-9.565 7.439-17.713 17.005-17.713 6.022 0 11.336 2.834 14.878 7.439 2.126 3.188 6.731 3.897 9.919 1.772 1.417-1.063 2.126-2.126 2.834-3.897 2.834-9.211 12.753-14.524 21.964-11.69 5.668 1.771 9.919 6.022 11.69 11.69v0c0.709 2.48 2.834 4.605 5.668 4.96 2.834 0.354 5.314-0.709 7.085-2.835 5.668-7.794 16.296-9.919 24.444-4.251 4.96 3.188 7.794 8.856 7.439 14.879 0 3.897 3.188 7.439 7.085 7.439 1.771 0 3.188-0.354 4.605-1.417 7.794-5.668 18.775-4.251 24.444 3.543 3.543 4.605 4.605 10.628 2.48 16.296-1.417 3.897 0.709 7.794 4.605 9.21 1.417 0.354 3.188 0.354 4.605 0 9.211-3.188 19.13 1.771 22.318 10.982 1.771 5.314 1.063 11.69-2.48 16.296-2.48 3.188-1.771 7.794 1.417 9.919 1.417 1.063 2.834 1.417 4.606 1.417 9.565-0.354 17.713 7.439 17.712 17.004 0 6.022-2.834 11.336-7.439 14.878-2.48 1.417-3.543 4.251-3.188 7.085 0.354 2.834 2.48 4.96 4.959 5.669 9.211 2.834 14.524 12.753 11.691 21.963-1.771 5.668-6.022 9.919-11.691 11.691-3.897 1.063-6.022 5.314-4.959 8.856 0.354 1.417 1.417 2.834 2.834 3.897 7.794 5.668 9.919 16.296 4.251 24.443-3.188 4.96-8.856 7.794-14.879 7.439-2.834 0-5.314 1.417-6.731 3.897-1.417 2.48-1.063 5.314 0.709 7.794 5.668 7.794 4.251 18.775-3.543 24.443-4.605 3.543-10.628 4.605-16.295 2.48-3.897-1.417-7.794 0.709-9.211 4.605-0.354 1.417-0.354 3.188 0 4.606 3.188 9.211-1.771 19.13-10.982 22.317-5.314 1.771-11.69 1.063-16.295-2.479-3.188-2.48-7.794-1.771-9.919 1.417-1.063 1.417-1.417 2.834-1.417 4.605 0.354 9.565-7.439 17.713-17.005 17.713-6.022 0-11.336-2.834-14.878-7.44-1.417-2.126-4.251-3.543-7.085-2.834-2.834 0.354-4.96 2.48-5.668 4.96-2.126 7.439-8.856 12.399-16.65 12.399zM136.088 312.518c1.063 0 1.771 0 2.834 0.354 6.731 1.063 12.045 5.668 13.816 12.045 1.063 3.897 5.314 6.022 8.856 4.605 2.126-0.709 3.897-2.48 4.605-4.605 2.834-9.211 12.753-14.524 21.964-11.691 3.543 1.063 7.085 3.543 9.211 6.731 2.48 3.188 6.731 3.897 10.273 1.417 1.771-1.417 2.834-3.543 2.834-5.668-0.354-9.565 7.439-17.713 17.004-17.712 3.897 0 7.794 1.063 10.982 3.542 3.188 2.48 7.794 1.771 9.919-1.417 1.417-1.771 1.771-4.605 1.063-6.731-3.188-9.211 1.417-19.13 10.627-22.318 3.897-1.417 7.794-1.417 11.691 0 3.897 1.417 7.794-0.709 9.21-4.605 0.709-2.126 0.354-4.96-1.062-6.731-5.668-7.794-4.251-18.775 3.542-24.443 3.188-2.48 7.085-3.543 10.982-3.543 3.897 0 7.085-3.188 7.439-7.085 0-2.48-1.063-4.605-3.188-6.022-7.794-5.668-9.919-16.296-4.251-24.443 2.126-3.188 5.314-5.668 9.211-6.731 3.897-1.063 6.022-5.314 4.605-8.857-0.709-2.126-2.48-3.897-4.605-4.605-9.211-2.834-14.524-12.753-11.691-21.964 1.063-3.543 3.543-7.085 6.731-9.21 3.188-2.48 3.897-7.085 1.417-10.273-1.417-1.771-3.543-2.834-5.668-2.834-9.565 0.354-17.713-7.439-17.713-17.005 0-3.897 1.063-7.794 3.543-10.981 2.48-3.188 1.771-7.794-1.417-9.92-1.771-1.417-4.605-1.771-6.731-1.062-9.211 3.188-19.13-1.417-22.318-10.628-1.417-3.897-1.417-7.794 0-11.69 1.417-3.897-0.709-7.794-4.605-9.211-2.126-0.709-4.96-0.354-6.731 1.063-7.794 5.668-18.775 4.251-24.443-3.543-2.48-3.188-3.543-7.085-3.543-10.981 0-3.897-3.188-7.085-7.439-7.085-2.126 0-4.605 1.063-5.668 2.834-5.668 7.794-16.296 9.919-24.444 4.251-3.188-2.126-5.668-5.314-6.731-9.211v0c-1.063-3.897-5.314-6.022-8.856-4.605-2.126 0.709-3.897 2.48-4.605 4.605-2.834 9.211-12.753 14.524-21.964 11.69-3.543-1.063-7.085-3.543-9.21-6.73-2.48-3.188-6.731-3.897-10.274-1.417-1.771 1.417-2.834 3.543-2.834 5.668 0.354 9.565-7.439 17.713-17.004 17.712-3.897 0-7.794-1.063-10.982-3.542-3.188-2.48-7.794-1.771-9.919 1.417-1.417 1.771-1.771 4.605-1.063 6.731 3.188 9.211-1.417 19.13-10.627 22.317-3.897 1.417-7.794 1.417-11.691 0-3.897-1.417-7.794 0.709-9.21 4.606-0.709 2.126-0.354 4.96 1.063 6.731 5.668 7.794 4.251 18.775-3.543 24.443-3.188 2.48-7.085 3.543-10.982 3.543-3.897 0-7.085 3.188-7.085 7.439 0 2.126 1.063 4.605 2.834 5.668 7.794 5.668 9.919 16.296 4.251 24.443-2.126 3.188-5.314 5.668-9.21 6.731-3.897 1.063-6.022 5.314-4.606 8.856 0.709 2.126 2.48 3.897 4.606 4.606 9.211 2.834 14.524 12.753 11.69 21.963-1.063 3.543-3.543 7.085-6.731 9.211-3.188 2.48-3.897 6.731-1.417 10.273 1.417 1.771 3.543 2.834 5.668 2.834 9.565-0.354 17.713 7.439 17.713 17.004 0 3.897-1.063 7.794-3.543 10.982-2.48 3.188-1.771 7.794 1.417 9.919 1.771 1.417 4.605 1.771 6.731 1.063 9.211-3.188 19.13 1.417 22.318 10.628 1.417 3.897 1.417 7.794 0 11.69-1.417 3.897 0.709 7.794 4.605 9.211 2.126 0.709 4.96 0.354 6.731-1.063 7.794-5.668 18.775-4.251 24.444 3.542 2.48 3.188 3.543 7.085 3.542 10.982 0 3.897 3.188 7.085 7.085 7.44 2.48 0 4.605-1.063 6.023-3.189 3.543-4.605 8.856-7.439 14.524-7.439z" fill="#ff0000" fill-rule="nonzero" stroke="none" stroke-width="1" stroke-linecap="butt" stroke-linejoin="miter" stroke-miterlimit="10" stroke-dasharray="" stroke-dashoffset="0" font-family="none" font-weight="none" font-size="none" text-anchor="none" style="mix-blend-mode: normal" data-fill-palette-color="tertiary"></path></g><g transform="matrix(1,0,0,1,56,114.28470003549876)"><svg viewBox="0 0 208 131.43059992900248" height="131.43059992900248" width="208"><g><svg viewBox="0 0 208 131.43059992900248" height="131.43059992900248" width="208"><g><svg viewBox="0 0 208 131.43059992900248" height="131.43059992900248" width="208"><g id="textblocktransform"><svg viewBox="0 0 208 131.43059992900248" height="131.43059992900248" width="208" id="textblock"><g><svg viewBox="0 0 208 131.43059992900248" height="131.43059992900248" width="208"><g transform="matrix(1,0,0,1,0,0)"><svg width="208" viewBox="2.0500001907348633 -40.94999694824219 141.75 85.99999237060547" height="131.43059992900248" data-palette-color="#ff0000"><svg></svg><svg></svg><g class="wordmark-text-0" data-fill-palette-color="primary" id="text-0"><path xmlns="http://www.w3.org/2000/svg" d="M13.25 0.55v0c-2.433 0-4.467-0.477-6.1-1.43-1.633-0.947-2.867-2.337-3.7-4.17-0.833-1.833-1.3-4.083-1.4-6.75v0l6.35-1.25c0.067 1.567 0.257 2.95 0.57 4.15 0.32 1.2 0.807 2.123 1.46 2.77 0.647 0.653 1.503 0.98 2.57 0.98v0c1.2 0 2.05-0.36 2.55-1.08 0.5-0.713 0.75-1.62 0.75-2.72v0c0-1.767-0.4-3.217-1.2-4.35-0.8-1.133-1.867-2.267-3.2-3.4v0l-5.1-4.5c-1.433-1.233-2.573-2.61-3.42-4.13-0.853-1.513-1.28-3.387-1.28-5.62v0c0-3.2 0.933-5.667 2.8-7.4 1.867-1.733 4.417-2.6 7.65-2.6v0c1.9 0 3.483 0.29 4.75 0.87 1.267 0.587 2.277 1.397 3.03 2.43 0.747 1.033 1.303 2.207 1.67 3.52 0.367 1.32 0.6 2.713 0.7 4.18v0l-6.3 1.1c-0.067-1.267-0.207-2.4-0.42-3.4-0.22-1-0.603-1.783-1.15-2.35-0.553-0.567-1.363-0.85-2.43-0.85v0c-1.1 0-1.94 0.357-2.52 1.07-0.587 0.72-0.88 1.613-0.88 2.68v0c0 1.367 0.283 2.49 0.85 3.37 0.567 0.887 1.383 1.797 2.45 2.73v0l5.05 4.45c1.667 1.4 3.093 3.04 4.28 4.92 1.18 1.887 1.77 4.163 1.77 6.83v0c0 1.933-0.423 3.65-1.27 5.15-0.853 1.5-2.04 2.673-3.56 3.52-1.513 0.853-3.287 1.28-5.32 1.28zM34.75 0h-7.4v-40.5h7.4v17.8l8-17.8h7.05l-7.75 18.1 8.55 22.4h-7.35l-6.8-18.45-1.7 3.1zM61 0h-7.3v-40.5h7.3zM84.45 0h-17.2v-40.5h7.4v35.4h9.8zM105.3 0h-17.2v-40.5h7.4v35.4h9.8z" fill="#ff0000" fill-rule="nonzero" stroke="none" stroke-width="1" stroke-linecap="butt" stroke-linejoin="miter" stroke-miterlimit="10" stroke-dasharray="" stroke-dashoffset="0" font-family="none" font-weight="none" font-size="none" text-anchor="none" style="mix-blend-mode: normal" data-fill-palette-color="primary" opacity="1"></path><path xmlns="http://www.w3.org/2000/svg" d="M8.5 44.5h-5.55l0.7-40.5h7.65l5.75 28.05 6-28.05h7.4l0.75 40.5h-5.5l-0.6-28.15-5.75 28.15h-4.45l-5.85-28.25zM44.4 44.5h-7.3v-40.5h7.3zM56.95 44.5h-6.3v-40.5h5.15l9.85 23.1v-23.1h6.1v40.5h-4.9l-9.9-24.2zM88.05 45.05v0c-2.667 0-4.783-0.567-6.35-1.7-1.567-1.133-2.693-2.743-3.38-4.83-0.68-2.08-1.02-4.537-1.02-7.37v0-13.6c0-2.9 0.333-5.4 1-7.5 0.667-2.1 1.84-3.71 3.52-4.83 1.687-1.113 4.013-1.67 6.98-1.67v0c2.767 0 4.967 0.467 6.6 1.4 1.633 0.933 2.807 2.277 3.52 4.03 0.72 1.747 1.08 3.87 1.08 6.37v0 2.1h-7.05v-2.3c0-1.3-0.093-2.417-0.28-3.35-0.18-0.933-0.547-1.643-1.1-2.13-0.547-0.48-1.437-0.72-2.67-0.72v0c-1.3 0-2.243 0.317-2.83 0.95-0.58 0.633-0.947 1.467-1.1 2.5-0.147 1.033-0.22 2.167-0.22 3.4v0 16.95c0 1.4 0.117 2.617 0.35 3.65 0.233 1.033 0.667 1.823 1.3 2.37 0.633 0.553 1.533 0.83 2.7 0.83v0c1.2 0 2.117-0.3 2.75-0.9 0.633-0.6 1.073-1.433 1.32-2.5 0.253-1.067 0.38-2.333 0.38-3.8v0-3.8h-4.35v-4.65h11v20.55h-4.75l-0.55-4c-0.533 1.333-1.343 2.423-2.43 3.27-1.08 0.853-2.553 1.28-4.42 1.28zM123.05 44.5h-17.2v-40.5h7.4v35.4h9.8zM143.8 44.5h-17.1v-40.5h17v5.2h-9.6v11.65h7.55v5.15h-7.55v13.4h9.7z" fill="#3b1414" fill-rule="nonzero" stroke="none" stroke-width="1" stroke-linecap="butt" stroke-linejoin="miter" stroke-miterlimit="10" stroke-dasharray="" stroke-dashoffset="0" font-family="none" font-weight="none" font-size="none" text-anchor="none" style="mix-blend-mode: normal" data-fill-palette-color="secondary" opacity="1"></path></g></svg></g></svg></g></svg></g></svg></g></svg></g></svg></g></svg></g><defs></defs></svg><rect width="320" height="360" fill="none" stroke="none" visibility="hidden"></rect></g></svg></g></svg>